# Blender 3.4.1
# www.blender.org
mtllib pants.mtl
o pants
v 4.735436 30.127132 -4.695877
v 6.962689 5.500801 -4.978971
v 4.735436 29.984106 4.066562
v 6.962689 5.513439 2.518435
v 0.614188 30.127132 -4.695877
v 0.788173 5.500801 -4.978971
v 0.000000 29.984106 4.066562
v 0.788173 5.513439 2.518435
v 5.308504 23.790831 -4.768716
v 5.308504 23.791277 4.133803
v 0.000000 23.790571 4.137773
v 0.658954 23.790831 -4.768716
v 0.000000 23.769527 1.663700
v 0.000000 30.099329 1.492364
v 0.000000 30.111967 -4.695899
v 0.000000 23.775663 -4.768739
v 5.859899 17.694153 -4.838802
v 6.411294 11.597477 -4.908886
v 6.411294 11.603858 2.233531
v 5.859899 17.769510 2.143970
v 0.745100 11.603858 2.233531
v 0.702027 17.769510 2.143970
v 0.745100 11.597478 -4.908886
v 0.702027 17.694153 -4.838801
v 4.741834 30.127893 -1.664113
v 6.690596 8.549508 -4.947661
v 6.971605 5.499058 -1.230254
v 5.025220 26.916903 4.859603
v 2.354009 29.986790 4.068182
v 3.875431 5.506580 2.525753
v 0.000000 26.917974 4.864974
v 0.579000 30.133045 -1.664103
v 0.779560 5.498541 -1.230253
v 0.635768 26.959080 -4.741174
v 2.674812 30.129389 -4.698038
v 3.875431 5.493777 -4.986185
v 5.025338 26.959322 -4.735587
v 5.584201 20.814283 3.466270
v 0.647276 20.814743 3.464074
v 0.681229 20.742470 -4.801523
v 2.983729 23.790771 -4.775156
v 0.633123 23.773695 -1.552510
v 2.758464 23.789476 4.141973
v 5.321693 23.789341 -1.552495
v 0.000000 26.923374 1.560837
v 0.000000 30.112297 -1.664137
v 0.000000 26.943899 -4.739438
v 0.000000 23.765202 -1.552526
v 0.000000 23.776817 1.663841
v 0.000000 30.107267 1.489588
v 0.329484 23.782951 -4.768862
v 0.307085 30.119902 -4.696229
v 5.584201 20.742491 -4.803760
v 6.135596 14.645814 -4.873844
v 6.690689 8.559159 2.379761
v 6.135596 14.649067 2.091079
v 0.763090 8.558785 2.379458
v 0.723564 14.649067 2.091079
v 0.763184 8.549154 -4.947355
v 0.723564 14.645816 -4.873844
v 3.280963 17.694714 -4.849422
v 3.578197 11.598092 -4.920553
v 0.687985 17.694525 -1.445087
v 0.730323 11.600993 -1.337678
v 3.280963 17.768221 2.154516
v 3.578197 11.604880 2.245158
v 5.873817 17.695879 -1.445087
v 6.425941 11.602420 -1.337679
v 6.149879 14.649149 -1.391383
v 5.597755 20.742611 -1.498792
v 3.429580 14.650043 2.102185
v 3.132726 20.812590 3.473389
v 0.709154 14.647759 -1.391382
v 0.663826 20.736391 -1.498797
v 3.429580 14.646401 -4.884988
v 3.132712 20.742382 -4.811057
v 0.265998 30.123308 -1.664126
v 0.314322 26.951464 -4.740834
v 0.306157 23.769493 -1.552520
v 0.000000 26.939335 -1.608343
v 5.035722 26.960449 -1.608341
v 2.559260 26.920578 4.866280
v 0.000000 26.923702 1.565775
v 2.830559 26.961353 -4.742961
v 3.875858 5.484134 -1.230188
v 2.679142 30.133722 -1.664120
v 3.726890 8.544923 -4.958308
v 0.749962 8.548255 -1.283941
v 3.726889 8.554849 2.390526
v 6.704212 8.549544 -1.283943
v -4.735436 30.127132 -4.695877
v -6.962689 5.500801 -4.978971
v -4.735436 29.984106 4.066562
v -6.962689 5.513439 2.518435
v -0.614188 30.127132 -4.695877
v -0.788173 5.500801 -4.978971
v -0.788173 5.513439 2.518435
v -5.308504 23.790831 -4.768716
v -5.308504 23.791277 4.133803
v -0.658954 23.790831 -4.768716
v -5.859899 17.694153 -4.838802
v -6.411294 11.597477 -4.908886
v -6.411294 11.603858 2.233531
v -5.859899 17.769510 2.143970
v -0.745100 11.603858 2.233531
v -0.702027 17.769510 2.143970
v -0.745100 11.597478 -4.908886
v -0.702027 17.694153 -4.838801
v -4.741834 30.127893 -1.664113
v -6.690596 8.549508 -4.947661
v -6.971605 5.499058 -1.230254
v -5.025220 26.916903 4.859603
v -2.354009 29.986790 4.068182
v -3.875431 5.506580 2.525753
v -0.579000 30.133045 -1.664103
v -0.779560 5.498541 -1.230253
v -0.635768 26.959080 -4.741174
v -2.674812 30.129389 -4.698038
v -3.875431 5.493777 -4.986185
v -5.025338 26.959322 -4.735587
v -5.584201 20.814283 3.466270
v -0.647276 20.814743 3.464074
v -0.681229 20.742470 -4.801523
v -2.983729 23.790771 -4.775156
v -0.633123 23.773695 -1.552510
v -2.758464 23.789476 4.141973
v -5.321693 23.789341 -1.552495
v -0.329484 23.782951 -4.768862
v -0.307085 30.119902 -4.696229
v -5.584201 20.742491 -4.803760
v -6.135596 14.645814 -4.873844
v -6.690689 8.559159 2.379761
v -6.135596 14.649067 2.091079
v -0.763090 8.558785 2.379458
v -0.723564 14.649067 2.091079
v -0.763184 8.549154 -4.947355
v -0.723564 14.645816 -4.873844
v -3.280963 17.694714 -4.849422
v -3.578197 11.598092 -4.920553
v -0.687985 17.694525 -1.445087
v -0.730323 11.600993 -1.337678
v -3.280963 17.768221 2.154516
v -3.578197 11.604880 2.245158
v -5.873817 17.695879 -1.445087
v -6.425941 11.602420 -1.337679
v -6.149879 14.649149 -1.391383
v -5.597755 20.742611 -1.498792
v -3.429580 14.650043 2.102185
v -3.132726 20.812590 3.473389
v -0.709154 14.647759 -1.391382
v -0.663826 20.736391 -1.498797
v -3.429580 14.646401 -4.884988
v -3.132712 20.742382 -4.811057
v -0.265998 30.123308 -1.664126
v -0.314322 26.951464 -4.740834
v -0.306157 23.769493 -1.552520
v -5.035722 26.960449 -1.608341
v -2.559260 26.920578 4.866280
v -2.830559 26.961353 -4.742961
v -3.875858 5.484134 -1.230188
v -2.679142 30.133722 -1.664120
v -3.726890 8.544923 -4.958308
v -0.749962 8.548255 -1.283941
v -3.726889 8.554849 2.390526
v -6.704212 8.549544 -1.283943
vn 0.9961 0.0882 0.0027
vn -0.0030 0.0449 0.9990
vn -1.0000 -0.0090 -0.0029
vn 0.0029 0.0099 -0.9999
vn -0.0007 1.0000 -0.0017
vn 0.0036 -1.0000 -0.0015
vn 0.0031 0.0105 -0.9999
vn -1.0000 -0.0000 -0.0000
vn -0.0009 -0.2260 0.9741
vn 0.9960 0.0898 0.0022
vn 0.0182 -0.9998 -0.0037
vn -0.0031 0.0139 -0.9999
vn -0.0711 0.9975 0.0016
vn 0.0036 0.0123 -0.9999
vn 0.0041 0.0119 -0.9999
vn -1.0000 -0.0074 -0.0047
vn -1.0000 -0.0070 -0.0041
vn -0.0039 -0.3977 0.9175
vn -0.0041 0.0467 0.9989
vn 0.9960 0.0899 0.0017
vn 0.9959 0.0903 0.0041
vn 0.9960 0.0891 0.0030
vn 0.9959 0.0901 -0.0042
vn 0.9958 0.0910 0.0019
vn 0.9959 0.0901 -0.0041
vn -0.0041 -0.0170 0.9998
vn 0.0041 -0.0166 0.9999
vn 0.0041 0.0471 0.9989
vn -0.0027 -0.2204 0.9754
vn 0.0031 -0.2186 0.9758
vn 0.0035 -0.3977 0.9175
vn -1.0000 -0.0069 0.0041
vn -0.9999 -0.0087 -0.0067
vn -0.9926 -0.1058 -0.0596
vn -0.9999 -0.0129 -0.0001
vn -0.0041 0.0115 -0.9999
vn 0.0029 0.0118 -0.9999
vn -0.0033 0.0112 -0.9999
vn -0.0040 0.0123 -0.9999
vn -0.0330 0.9995 -0.0008
vn -0.0274 0.9996 -0.0019
vn 0.1167 0.9927 0.0295
vn -0.0026 0.0090 -1.0000
vn -0.0005 0.0088 -1.0000
vn -0.0003 0.0142 -0.9999
vn 0.0378 -0.9993 0.0036
vn 0.0191 -0.9998 0.0047
vn 0.0184 -0.9998 -0.0046
vn 0.9956 0.0936 0.0028
vn 0.9958 0.0918 -0.0027
vn 0.9960 0.0894 -0.0037
vn -0.0008 0.2519 0.9677
vn 0.0020 0.2513 0.9679
vn 0.0028 -0.2256 0.9742
vn 0.0023 0.0135 -0.9999
vn -0.0009 0.0142 -0.9999
vn -0.0018 0.0094 -1.0000
vn -0.0035 -1.0000 -0.0016
vn -0.0034 -1.0000 0.0050
vn 0.0035 -1.0000 0.0049
vn 0.0020 1.0000 -0.0008
vn 0.0019 0.9997 0.0254
vn -0.0008 0.9997 0.0257
vn 0.0038 0.0128 -0.9999
vn -0.0039 0.0124 -0.9999
vn -0.0030 0.0097 -0.9999
vn -1.0000 -0.0062 -0.0039
vn -1.0000 -0.0060 0.0039
vn -1.0000 -0.0089 0.0030
vn -0.0039 0.0476 0.9989
vn 0.0038 0.0481 0.9988
vn 0.0029 0.0451 0.9990
vn 0.9958 0.0912 0.0037
vn 0.9958 0.0910 -0.0040
vn 0.9961 0.0881 -0.0030
vn -0.9961 0.0882 0.0027
vn 0.0030 0.0449 0.9990
vn 1.0000 -0.0090 -0.0029
vn -0.0029 0.0099 -0.9999
vn 0.0007 1.0000 -0.0017
vn -0.0036 -1.0000 -0.0015
vn -0.0031 0.0105 -0.9999
vn 0.0009 -0.2260 0.9741
vn -0.9960 0.0898 0.0022
vn -0.0182 -0.9998 -0.0037
vn 0.0031 0.0139 -0.9999
vn 0.0711 0.9975 0.0016
vn -0.0036 0.0123 -0.9999
vn -0.0041 0.0119 -0.9999
vn 1.0000 -0.0074 -0.0047
vn 1.0000 -0.0070 -0.0041
vn 0.0039 -0.3977 0.9175
vn 0.0041 0.0467 0.9989
vn -0.9960 0.0899 0.0017
vn -0.9959 0.0903 0.0041
vn -0.9960 0.0891 0.0030
vn -0.9959 0.0901 -0.0042
vn -0.9958 0.0910 0.0019
vn -0.9959 0.0901 -0.0041
vn 0.0041 -0.0170 0.9998
vn -0.0041 -0.0166 0.9999
vn -0.0041 0.0471 0.9989
vn 0.0027 -0.2204 0.9754
vn -0.0031 -0.2186 0.9758
vn -0.0035 -0.3977 0.9175
vn 1.0000 -0.0069 0.0041
vn 0.9999 -0.0087 -0.0067
vn 0.9926 -0.1058 -0.0596
vn 0.9999 -0.0129 -0.0001
vn 0.0041 0.0115 -0.9999
vn -0.0029 0.0118 -0.9999
vn 0.0033 0.0112 -0.9999
vn 0.0040 0.0123 -0.9999
vn 0.0330 0.9995 -0.0008
vn 0.0274 0.9996 -0.0019
vn -0.1167 0.9927 0.0295
vn 0.0026 0.0090 -1.0000
vn 0.0005 0.0088 -1.0000
vn 0.0003 0.0142 -0.9999
vn -0.0378 -0.9993 0.0036
vn -0.0191 -0.9998 0.0047
vn -0.0184 -0.9998 -0.0046
vn -0.9956 0.0936 0.0028
vn -0.9958 0.0918 -0.0027
vn -0.9960 0.0894 -0.0037
vn 0.0008 0.2519 0.9677
vn -0.0020 0.2513 0.9679
vn -0.0028 -0.2256 0.9742
vn -0.0023 0.0135 -0.9999
vn 0.0009 0.0142 -0.9999
vn 0.0018 0.0094 -1.0000
vn 0.0035 -1.0000 -0.0016
vn 0.0034 -1.0000 0.0050
vn -0.0035 -1.0000 0.0049
vn -0.0020 1.0000 -0.0008
vn -0.0019 0.9997 0.0254
vn 0.0008 0.9997 0.0257
vn -0.0038 0.0128 -0.9999
vn 0.0039 0.0124 -0.9999
vn 0.0030 0.0097 -0.9999
vn 1.0000 -0.0062 -0.0039
vn 1.0000 -0.0060 0.0039
vn 1.0000 -0.0089 0.0030
vn 0.0039 0.0476 0.9989
vn -0.0038 0.0481 0.9988
vn -0.0029 0.0451 0.9990
vn -0.9958 0.0912 0.0037
vn -0.9958 0.0910 -0.0040
vn -0.9961 0.0881 -0.0030
vt 0.375000 0.000000
vt 0.375000 1.000000
vt 0.125000 0.750000
vt 0.625000 1.000000
vt 0.875000 0.750000
vt 0.625000 0.000000
vt 0.375000 0.250000
vt 0.125000 0.500000
vt 0.875000 0.500000
vt 0.625000 0.250000
vt 0.375000 0.750000
vt 0.625000 0.750000
vt 0.375000 0.500000
vt 0.625000 0.500000
vt 0.439324 1.000000
vt 0.439324 0.000000
vt 0.439324 0.250000
vt 0.439324 0.500000
vt 0.439324 0.750000
vt 0.439324 0.500000
vt 0.375000 0.500000
vt 0.375000 0.750000
vt 0.439324 0.750000
vt 0.501216 0.000000
vt 0.501216 1.000000
vt 0.563108 1.000000
vt 0.563108 0.000000
vt 0.563108 0.250000
vt 0.501216 0.250000
vt 0.563108 0.500000
vt 0.501216 0.500000
vt 0.563108 0.750000
vt 0.501216 0.750000
vt 0.375000 0.125000
vt 0.125000 0.625000
vt 0.594054 1.000000
vt 0.594054 0.000000
vt 0.875000 0.625000
vt 0.625000 0.125000
vt 0.407162 0.250000
vt 0.375000 0.375000
vt 0.250000 0.500000
vt 0.750000 0.500000
vt 0.625000 0.375000
vt 0.407162 0.500000
vt 0.375000 0.625000
vt 0.625000 0.625000
vt 0.407162 0.750000
vt 0.375000 0.875000
vt 0.250000 0.750000
vt 0.750000 0.750000
vt 0.625000 0.875000
vt 0.407162 0.000000
vt 0.407162 1.000000
vt 0.470270 0.250000
vt 0.470270 0.500000
vt 0.470270 0.750000
vt 0.439324 0.875000
vt 0.439324 0.625000
vt 0.439324 0.375000
vt 0.439324 0.125000
vt 0.407162 0.500000
vt 0.375000 0.625000
vt 0.407162 0.750000
vt 0.439324 0.625000
vt 0.439324 0.500000
vt 0.375000 0.500000
vt 0.439324 0.750000
vt 0.375000 0.750000
vt 0.470270 0.000000
vt 0.470270 1.000000
vt 0.532162 0.000000
vt 0.532162 1.000000
vt 0.594054 0.250000
vt 0.532162 0.250000
vt 0.594054 0.500000
vt 0.532162 0.500000
vt 0.594054 0.750000
vt 0.532162 0.750000
vt 0.501216 0.875000
vt 0.563108 0.875000
vt 0.501216 0.625000
vt 0.563108 0.625000
vt 0.501216 0.375000
vt 0.563108 0.375000
vt 0.501216 0.125000
vt 0.563108 0.125000
vt 0.532162 0.125000
vt 0.470270 0.125000
vt 0.532162 0.375000
vt 0.470270 0.375000
vt 0.532162 0.625000
vt 0.470270 0.625000
vt 0.532162 0.875000
vt 0.470270 0.875000
vt 0.375000 0.625000
vt 0.407162 0.750000
vt 0.439324 0.625000
vt 0.407162 0.625000
vt 0.407162 0.125000
vt 0.407162 0.375000
vt 0.407162 0.500000
vt 0.407162 0.875000
vt 0.750000 0.625000
vt 0.250000 0.625000
vt 0.594054 0.875000
vt 0.594054 0.625000
vt 0.594054 0.375000
vt 0.594054 0.125000
vt 0.375000 0.000000
vt 0.375000 1.000000
vt 0.125000 0.750000
vt 0.625000 1.000000
vt 0.875000 0.750000
vt 0.625000 0.000000
vt 0.375000 0.250000
vt 0.125000 0.500000
vt 0.875000 0.500000
vt 0.625000 0.250000
vt 0.375000 0.750000
vt 0.625000 0.750000
vt 0.625000 0.500000
vt 0.439324 1.000000
vt 0.439324 0.000000
vt 0.439324 0.250000
vt 0.439324 0.750000
vt 0.501216 0.000000
vt 0.501216 1.000000
vt 0.563108 1.000000
vt 0.563108 0.000000
vt 0.563108 0.250000
vt 0.501216 0.250000
vt 0.563108 0.500000
vt 0.501216 0.500000
vt 0.563108 0.750000
vt 0.501216 0.750000
vt 0.375000 0.125000
vt 0.125000 0.625000
vt 0.594054 1.000000
vt 0.594054 0.000000
vt 0.875000 0.625000
vt 0.625000 0.125000
vt 0.407162 0.250000
vt 0.375000 0.375000
vt 0.250000 0.500000
vt 0.750000 0.500000
vt 0.625000 0.375000
vt 0.375000 0.625000
vt 0.625000 0.625000
vt 0.407162 0.750000
vt 0.375000 0.875000
vt 0.250000 0.750000
vt 0.750000 0.750000
vt 0.625000 0.875000
vt 0.407162 0.000000
vt 0.407162 1.000000
vt 0.470270 0.250000
vt 0.470270 0.500000
vt 0.470270 0.750000
vt 0.439324 0.875000
vt 0.439324 0.625000
vt 0.439324 0.375000
vt 0.439324 0.125000
vt 0.439324 0.750000
vt 0.375000 0.750000
vt 0.470270 0.000000
vt 0.470270 1.000000
vt 0.532162 0.000000
vt 0.532162 1.000000
vt 0.594054 0.250000
vt 0.532162 0.250000
vt 0.594054 0.500000
vt 0.532162 0.500000
vt 0.594054 0.750000
vt 0.532162 0.750000
vt 0.501216 0.875000
vt 0.563108 0.875000
vt 0.501216 0.625000
vt 0.563108 0.625000
vt 0.501216 0.375000
vt 0.563108 0.375000
vt 0.501216 0.125000
vt 0.563108 0.125000
vt 0.532162 0.125000
vt 0.470270 0.125000
vt 0.532162 0.375000
vt 0.470270 0.375000
vt 0.532162 0.625000
vt 0.470270 0.625000
vt 0.532162 0.875000
vt 0.470270 0.875000
vt 0.375000 0.625000
vt 0.407162 0.750000
vt 0.439324 0.625000
vt 0.407162 0.125000
vt 0.407162 0.375000
vt 0.407162 0.875000
vt 0.750000 0.625000
vt 0.250000 0.625000
vt 0.594054 0.875000
vt 0.594054 0.625000
vt 0.594054 0.375000
vt 0.594054 0.125000
s 0
f 90/109/1 55/74/1 4/10/1 27/39/1
f 89/108/2 57/76/2 8/14/2 30/44/2
f 88/107/3 59/78/3 6/12/3 33/47/3
f 87/106/4 26/36/4 2/4/4 36/52/4
f 86/105/5 35/50/5 5/11/5 32/46/5
f 85/104/6 36/51/6 2/5/6 27/38/6
f 84/103/7 37/54/7 9/15/7 41/58/7
f 83/102/8 45/62/8 13/20/8 49/66/8
f 82/101/9 31/45/9 11/18/9 43/60/9
f 81/100/10 28/40/10 10/17/10 44/61/10
f 80/99/8 47/64/8 16/23/8 48/65/8
f 79/98/11 48/65/11 16/23/11 51/68/11
f 78/97/12 47/64/12 15/22/12 52/69/12
f 77/96/13 46/63/13 14/21/13 50/67/13
f 76/95/14 53/71/14 17/25/14 61/80/14
f 75/94/15 54/73/15 18/26/15 62/81/15
f 74/93/16 40/57/16 24/33/16 63/82/16
f 73/92/17 60/79/17 23/32/17 64/83/17
f 72/91/18 39/56/18 22/31/18 65/84/18
f 71/90/19 58/77/19 21/30/19 66/85/19
f 70/89/20 38/55/20 20/29/20 67/86/20
f 69/88/21 56/75/21 19/28/21 68/87/21
f 67/86/22 20/29/22 56/75/22 69/88/22
f 17/24/23 67/86/23 69/88/23 54/72/23
f 54/72/23 69/88/23 68/87/23 18/27/23
f 44/61/24 10/17/24 38/55/24 70/89/24
f 9/16/25 44/61/25 70/89/25 53/70/25
f 53/70/25 70/89/25 67/86/25 17/24/25
f 65/84/26 22/31/26 58/77/26 71/90/26
f 20/29/27 65/84/27 71/90/27 56/75/27
f 56/75/28 71/90/28 66/85/28 19/28/28
f 43/60/29 11/18/29 39/56/29 72/91/29
f 10/17/30 43/60/30 72/91/30 38/55/30
f 38/55/31 72/91/31 65/84/31 20/29/31
f 63/82/17 24/33/17 60/79/17 73/92/17
f 22/31/32 63/82/32 73/92/32 58/77/32
f 58/77/32 73/92/32 64/83/32 21/30/32
f 42/59/33 12/19/33 40/57/33 74/93/33
f 11/18/34 42/59/34 74/93/34 39/56/34
f 39/56/35 74/93/35 63/82/35 22/31/35
f 61/80/15 17/25/15 54/73/15 75/94/15
f 24/33/36 61/80/36 75/94/36 60/79/36
f 60/79/36 75/94/36 62/81/36 23/32/36
f 41/58/37 9/15/37 53/71/37 76/95/37
f 12/19/38 41/58/38 76/95/38 40/57/38
f 40/57/39 76/95/39 61/80/39 24/33/39
f 52/69/40 15/22/40 46/63/40 77/96/40
f 5/11/41 52/69/41 77/96/41 32/46/41
f 32/46/42 77/96/42 50/67/42 7/13/42
f 51/68/43 16/23/43 47/64/43 78/97/43
f 12/19/44 51/68/44 78/97/44 34/48/44
f 34/48/45 78/97/45 52/69/45 5/11/45
f 49/66/46 13/20/46 48/65/46 79/98/46
f 11/18/47 49/66/47 79/98/47 42/59/47
f 42/59/48 79/98/48 51/68/48 12/19/48
f 46/63/8 15/22/8 47/64/8 80/99/8
f 14/21/8 46/63/8 80/99/8 45/62/8
f 45/62/8 80/99/8 48/65/8 13/20/8
f 25/34/49 3/7/49 28/40/49 81/100/49
f 1/1/50 25/34/50 81/100/50 37/53/50
f 37/53/51 81/100/51 44/61/51 9/16/51
f 29/41/52 7/13/52 31/45/52 82/101/52
f 3/7/53 29/41/53 82/101/53 28/40/53
f 28/40/54 82/101/54 43/60/54 10/17/54
f 50/67/8 14/21/8 45/62/8 83/102/8
f 7/13/8 50/67/8 83/102/8 31/45/8
f 31/45/8 83/102/8 49/66/8 11/18/8
f 35/49/55 1/2/55 37/54/55 84/103/55
f 5/11/56 35/49/56 84/103/56 34/48/56
f 34/48/57 84/103/57 41/58/57 12/19/57
f 33/47/58 6/12/58 36/51/58 85/104/58
f 8/14/59 33/47/59 85/104/59 30/43/59
f 30/43/60 85/104/60 27/38/60 4/9/60
f 25/35/61 1/3/61 35/50/61 86/105/61
f 3/8/62 25/35/62 86/105/62 29/42/62
f 29/42/63 86/105/63 32/46/63 7/13/63
f 62/81/64 18/26/64 26/36/64 87/106/64
f 23/32/65 62/81/65 87/106/65 59/78/65
f 59/78/66 87/106/66 36/52/66 6/12/66
f 64/83/67 23/32/67 59/78/67 88/107/67
f 21/30/68 64/83/68 88/107/68 57/76/68
f 57/76/69 88/107/69 33/47/69 8/14/69
f 66/85/70 21/30/70 57/76/70 89/108/70
f 19/28/71 66/85/71 89/108/71 55/74/71
f 55/74/72 89/108/72 30/44/72 4/10/72
f 68/87/73 19/28/73 55/74/73 90/109/73
f 18/27/74 68/87/74 90/109/74 26/37/74
f 26/37/75 90/109/75 27/39/75 2/6/75
f 165/203/76 111/142/76 94/119/76 132/170/76
f 164/202/77 114/147/77 97/122/77 134/172/77
f 163/201/78 116/149/78 96/121/78 136/174/78
f 162/200/79 119/154/79 92/113/79 110/139/79
f 161/199/80 115/148/80 95/120/80 118/152/80
f 160/198/81 111/141/81 92/114/81 119/153/81
f 159/197/82 124/160/82 98/123/82 120/156/82
f 158/196/83 126/162/83 11/18/83 31/45/83
f 157/195/84 127/163/84 99/125/84 112/143/84
f 156/194/85 128/164/85 16/23/85 48/65/85
f 155/193/86 129/165/86 15/22/86 47/64/86
f 154/192/87 50/67/87 14/21/87 46/63/87
f 153/191/88 138/176/88 101/128/88 130/167/88
f 152/190/89 139/177/89 102/129/89 131/169/89
f 151/189/90 140/178/90 108/136/90 123/159/90
f 150/188/91 141/179/91 107/135/91 137/175/91
f 149/187/92 142/180/92 106/134/92 122/158/92
f 148/186/93 143/181/93 105/133/93 135/173/93
f 147/185/94 144/182/94 104/132/94 121/157/94
f 146/184/95 145/183/95 103/131/95 133/171/95
f 144/182/96 146/184/96 133/171/96 104/132/96
f 101/127/97 131/168/97 146/184/97 144/182/97
f 131/168/97 102/130/97 145/183/97 146/184/97
f 127/163/98 147/185/98 121/157/98 99/125/98
f 98/124/99 130/166/99 147/185/99 127/163/99
f 130/166/99 101/127/99 144/182/99 147/185/99
f 142/180/100 148/186/100 135/173/100 106/134/100
f 104/132/101 133/171/101 148/186/101 142/180/101
f 133/171/102 103/131/102 143/181/102 148/186/102
f 126/162/103 149/187/103 122/158/103 11/18/103
f 99/125/104 121/157/104 149/187/104 126/162/104
f 121/157/105 104/132/105 142/180/105 149/187/105
f 140/178/91 150/188/91 137/175/91 108/136/91
f 106/134/106 135/173/106 150/188/106 140/178/106
f 135/173/106 105/133/106 141/179/106 150/188/106
f 125/161/107 151/189/107 123/159/107 100/126/107
f 11/18/108 122/158/108 151/189/108 125/161/108
f 122/158/109 106/134/109 140/178/109 151/189/109
f 138/176/89 152/190/89 131/169/89 101/128/89
f 108/136/110 137/175/110 152/190/110 138/176/110
f 137/175/110 107/135/110 139/177/110 152/190/110
f 124/160/111 153/191/111 130/167/111 98/123/111
f 100/126/112 123/159/112 153/191/112 124/160/112
f 123/159/113 108/136/113 138/176/113 153/191/113
f 129/165/114 154/192/114 46/63/114 15/22/114
f 95/120/115 115/148/115 154/192/115 129/165/115
f 115/148/116 7/13/116 50/67/116 154/192/116
f 128/164/117 155/193/117 47/64/117 16/23/117
f 100/126/118 117/150/118 155/193/118 128/164/118
f 117/150/119 95/120/119 129/165/119 155/193/119
f 49/66/120 156/194/120 48/65/120 13/20/120
f 11/18/121 125/161/121 156/194/121 49/66/121
f 125/161/122 100/126/122 128/164/122 156/194/122
f 109/137/123 157/195/123 112/143/123 93/116/123
f 91/110/124 120/155/124 157/195/124 109/137/124
f 120/155/125 98/124/125 127/163/125 157/195/125
f 113/144/126 158/196/126 31/45/126 7/13/126
f 93/116/127 112/143/127 158/196/127 113/144/127
f 112/143/128 99/125/128 126/162/128 158/196/128
f 118/151/129 159/197/129 120/156/129 91/111/129
f 95/120/130 117/150/130 159/197/130 118/151/130
f 117/150/131 100/126/131 124/160/131 159/197/131
f 116/149/132 160/198/132 119/153/132 96/121/132
f 97/122/133 114/146/133 160/198/133 116/149/133
f 114/146/134 94/118/134 111/141/134 160/198/134
f 109/138/135 161/199/135 118/152/135 91/112/135
f 93/117/136 113/145/136 161/199/136 109/138/136
f 113/145/137 7/13/137 115/148/137 161/199/137
f 139/177/138 162/200/138 110/139/138 102/129/138
f 107/135/139 136/174/139 162/200/139 139/177/139
f 136/174/140 96/121/140 119/154/140 162/200/140
f 141/179/141 163/201/141 136/174/141 107/135/141
f 105/133/142 134/172/142 163/201/142 141/179/142
f 134/172/143 97/122/143 116/149/143 163/201/143
f 143/181/144 164/202/144 134/172/144 105/133/144
f 103/131/145 132/170/145 164/202/145 143/181/145
f 132/170/146 94/119/146 114/147/146 164/202/146
f 145/183/147 165/203/147 132/170/147 103/131/147
f 102/130/148 110/140/148 165/203/148 145/183/148
f 110/140/149 92/115/149 111/142/149 165/203/149
