# Blender 3.4.1
# www.blender.org
mtllib shorts.mtl
o shorrst
v 4.738411 30.127132 -4.699517
v 4.738594 29.984106 4.066562
v 0.614188 30.127132 -4.699860
v 0.000000 29.984106 4.066562
v 5.628491 23.820452 -4.976518
v 5.613305 23.820560 4.582096
v 0.000000 23.758924 4.471493
v 0.615216 23.754566 -4.976518
v 0.000000 23.769527 1.728894
v 0.000000 30.099329 1.492364
v 0.000000 30.111967 -4.699884
v 0.000000 23.742128 -4.976541
v 4.745009 30.127893 -1.664113
v 5.206735 26.916903 4.863453
v 2.354009 29.986790 4.068182
v 0.000000 26.917974 4.868548
v 0.579000 30.133045 -1.664103
v 0.635768 26.959080 -4.948976
v 2.674812 30.129389 -4.701920
v 5.206852 26.959322 -4.943389
v 6.523088 21.733337 4.113973
v 0.321400 19.879751 4.034459
v 0.380010 19.825518 -5.009325
v 2.950778 23.788399 -4.982958
v 0.587422 23.735161 -1.555288
v 2.719764 23.784475 4.485376
v 5.644110 23.819332 -1.555276
v 0.000000 26.923374 1.560837
v 0.000000 30.112297 -1.664137
v 0.000000 26.943899 -4.947239
v 0.000000 23.730183 -1.555308
v 0.000000 23.776817 1.729046
v 0.000000 30.107267 1.489588
v 0.288393 23.744276 -4.976665
v 0.307085 30.119902 -4.700203
v 6.550048 21.666800 -5.011562
v 6.562566 21.672001 -1.499894
v 3.287322 20.811140 4.053491
v 0.366164 19.813349 -1.499933
v 3.308656 20.746067 -5.018859
v 0.265998 30.123308 -1.664126
v 0.314322 26.951464 -4.948636
v 0.263980 23.729267 -1.555296
v 0.000000 26.939335 -1.613404
v 5.217236 26.960449 -1.613519
v 2.595241 26.920578 4.870512
v 0.000000 26.923702 1.565775
v 2.885262 26.961353 -4.950764
v 2.679142 30.133722 -1.664120
v -4.738411 30.127132 -4.699517
v -4.738594 29.984106 4.066562
v -0.614188 30.127132 -4.699860
v -5.628491 23.820452 -4.976518
v -5.613305 23.820560 4.582096
v -0.615216 23.754566 -4.976518
v -4.745009 30.127893 -1.664113
v -5.206735 26.916903 4.863453
v -2.354009 29.986790 4.068182
v -0.579000 30.133045 -1.664103
v -0.635768 26.959080 -4.948976
v -2.674812 30.129389 -4.701920
v -5.206852 26.959322 -4.943389
v -6.523088 21.733337 4.113973
v -0.321400 19.879751 4.034459
v -0.380010 19.825518 -5.009325
v -2.950778 23.788399 -4.982958
v -0.587422 23.735161 -1.555288
v -2.719764 23.784475 4.485376
v -5.644110 23.819332 -1.555276
v -0.288393 23.744276 -4.976665
v -0.307085 30.119902 -4.700203
v -6.550048 21.666800 -5.011562
v -6.562566 21.672001 -1.499894
v -3.287322 20.811140 4.053491
v -0.366164 19.813349 -1.499933
v -3.308656 20.746067 -5.018859
v -0.265998 30.123308 -1.664126
v -0.314322 26.951464 -4.948636
v -0.263980 23.729267 -1.555296
v -5.217236 26.960449 -1.613519
v -2.595241 26.920578 4.870512
v -2.885262 26.961353 -4.950764
v -2.679142 30.133722 -1.664120
vn -0.0007 1.0000 -0.0017
vn 0.0027 0.0106 -0.9999
vn -1.0000 -0.0000 -0.0000
vn -0.0023 -0.1233 0.9924
vn 0.9912 0.1323 0.0037
vn 0.0022 -1.0000 -0.0039
vn -0.0047 0.0780 -0.9969
vn -0.0711 0.9975 0.0016
vn 0.9182 0.3961 0.0034
vn 0.9194 0.3933 -0.0040
vn 0.0151 -0.1239 0.9922
vn 0.0020 -0.1745 0.9847
vn -0.9983 0.0580 -0.0057
vn -0.9985 -0.0101 -0.0545
vn 0.0001 0.0137 -0.9999
vn -0.0048 0.0098 -0.9999
vn -0.0331 0.9995 -0.0008
vn -0.0274 0.9996 -0.0019
vn 0.1167 0.9927 0.0295
vn -0.0027 0.0090 -1.0000
vn -0.0005 0.0087 -1.0000
vn -0.0018 0.0783 -0.9969
vn 0.0242 -0.9996 0.0142
vn -0.0574 -0.9983 0.0024
vn 0.0249 -0.9997 -0.0048
vn 0.9887 0.1496 0.0037
vn 0.9891 0.1470 -0.0027
vn 0.9910 0.1339 -0.0038
vn -0.0010 0.2531 0.9674
vn 0.0020 0.2525 0.9676
vn -0.0156 -0.1076 0.9941
vn 0.0023 0.0778 -0.9970
vn -0.0010 0.0783 -0.9969
vn -0.0019 0.0094 -1.0000
vn 0.0020 1.0000 -0.0008
vn 0.0019 0.9997 0.0254
vn -0.0008 0.9997 0.0257
vn 0.2739 -0.9617 0.0124
vn 0.2732 -0.9619 0.0005
vn 0.2995 -0.9540 0.0139
vn 0.2999 -0.9540 -0.0021
vn 0.2873 -0.9577 -0.0136
vn 0.2872 -0.9576 0.0210
vn 0.0007 1.0000 -0.0017
vn -0.0027 0.0106 -0.9999
vn 0.0023 -0.1233 0.9924
vn -0.9912 0.1323 0.0037
vn -0.0022 -1.0000 -0.0039
vn 0.0047 0.0780 -0.9969
vn 0.0711 0.9975 0.0016
vn -0.9182 0.3961 0.0034
vn -0.9194 0.3933 -0.0040
vn -0.0151 -0.1239 0.9922
vn -0.0020 -0.1745 0.9847
vn 0.9983 0.0580 -0.0057
vn 0.9985 -0.0101 -0.0545
vn -0.0001 0.0137 -0.9999
vn 0.0048 0.0098 -0.9999
vn 0.0331 0.9995 -0.0008
vn 0.0274 0.9996 -0.0019
vn -0.1167 0.9927 0.0295
vn 0.0027 0.0090 -1.0000
vn 0.0005 0.0087 -1.0000
vn 0.0018 0.0783 -0.9969
vn -0.0241 -0.9996 0.0142
vn 0.0574 -0.9983 0.0024
vn -0.0249 -0.9997 -0.0048
vn -0.9887 0.1496 0.0037
vn -0.9891 0.1470 -0.0027
vn -0.9910 0.1339 -0.0038
vn 0.0010 0.2531 0.9674
vn -0.0020 0.2525 0.9676
vn 0.0156 -0.1076 0.9941
vn -0.0023 0.0778 -0.9970
vn 0.0010 0.0783 -0.9969
vn 0.0019 0.0094 -1.0000
vn -0.0020 1.0000 -0.0008
vn -0.0019 0.9997 0.0254
vn 0.0008 0.9997 0.0257
vn -0.2739 -0.9617 0.0124
vn -0.2732 -0.9619 0.0005
vn -0.2995 -0.9540 0.0139
vn -0.2999 -0.9540 -0.0021
vn -0.2873 -0.9577 -0.0136
vn -0.2872 -0.9576 0.0210
vt 0.375000 0.000000
vt 0.375000 1.000000
vt 0.125000 0.750000
vt 0.375000 0.250000
vt 0.125000 0.500000
vt 0.375000 0.750000
vt 0.375000 0.500000
vt 0.439324 1.000000
vt 0.439324 0.000000
vt 0.439324 0.250000
vt 0.439324 0.500000
vt 0.439324 0.750000
vt 0.439324 0.500000
vt 0.375000 0.500000
vt 0.375000 0.750000
vt 0.439324 0.750000
vt 0.375000 0.125000
vt 0.125000 0.625000
vt 0.407162 0.250000
vt 0.375000 0.375000
vt 0.250000 0.500000
vt 0.407162 0.500000
vt 0.375000 0.625000
vt 0.407162 0.750000
vt 0.375000 0.875000
vt 0.250000 0.750000
vt 0.407162 0.000000
vt 0.407162 1.000000
vt 0.470270 0.250000
vt 0.000000 0.000000
vt 0.470270 0.500000
vt 0.000000 0.000000
vt 0.470270 0.750000
vt 0.000000 0.000000
vt 0.439324 0.875000
vt 0.439324 0.625000
vt 0.439324 0.375000
vt 0.439324 0.125000
vt 0.407162 0.500000
vt 0.375000 0.625000
vt 0.407162 0.750000
vt 0.439324 0.625000
vt 0.439324 0.500000
vt 0.375000 0.500000
vt 0.439324 0.750000
vt 0.375000 0.750000
vt 0.470270 0.000000
vt 0.470270 1.000000
vt 0.000000 0.000000
vt 0.470270 0.125000
vt 0.000000 0.000000
vt 0.470270 0.375000
vt 0.000000 0.000000
vt 0.470270 0.625000
vt 0.000000 0.000000
vt 0.470270 0.875000
vt 0.000000 0.000000
vt 0.375000 0.625000
vt 0.407162 0.750000
vt 0.439324 0.625000
vt 0.407162 0.625000
vt 0.407162 0.125000
vt 0.407162 0.375000
vt 0.407162 0.500000
vt 0.407162 0.875000
vt 0.250000 0.625000
vt 0.375000 0.000000
vt 0.375000 1.000000
vt 0.125000 0.750000
vt 0.375000 0.250000
vt 0.125000 0.500000
vt 0.375000 0.750000
vt 0.439324 1.000000
vt 0.439324 0.000000
vt 0.439324 0.250000
vt 0.439324 0.750000
vt 0.375000 0.125000
vt 0.125000 0.625000
vt 0.407162 0.250000
vt 0.375000 0.375000
vt 0.250000 0.500000
vt 0.375000 0.625000
vt 0.407162 0.750000
vt 0.375000 0.875000
vt 0.250000 0.750000
vt 0.407162 0.000000
vt 0.407162 1.000000
vt 0.470270 0.250000
vt 0.000000 0.000000
vt 0.470270 0.500000
vt 0.000000 0.000000
vt 0.470270 0.750000
vt 0.000000 0.000000
vt 0.439324 0.875000
vt 0.439324 0.625000
vt 0.439324 0.375000
vt 0.439324 0.125000
vt 0.439324 0.750000
vt 0.375000 0.750000
vt 0.470270 0.000000
vt 0.470270 1.000000
vt 0.000000 0.000000
vt 0.470270 0.125000
vt 0.000000 0.000000
vt 0.470270 0.375000
vt 0.000000 0.000000
vt 0.470270 0.625000
vt 0.000000 0.000000
vt 0.470270 0.875000
vt 0.000000 0.000000
vt 0.375000 0.625000
vt 0.407162 0.750000
vt 0.439324 0.625000
vt 0.407162 0.125000
vt 0.407162 0.375000
vt 0.407162 0.875000
vt 0.250000 0.625000
s 0
f 49/66/1 19/26/1 3/6/1 17/23/1
f 48/65/2 20/28/2 5/8/2 24/35/2
f 47/64/3 28/39/3 9/13/3 32/43/3
f 46/63/4 16/22/4 7/11/4 26/37/4
f 45/62/5 14/19/5 6/10/5 27/38/5
f 44/61/3 30/41/3 12/16/3 31/42/3
f 43/60/6 31/42/6 12/16/6 34/45/6
f 42/59/7 30/41/7 11/15/7 35/46/7
f 41/58/8 29/40/8 10/14/8 33/44/8
f 27/38/9 6/10/9 21/29/9 37/50/9
f 5/9/10 27/38/10 37/50/10 36/47/10
f 26/37/11 7/11/11 22/31/11 38/52/11
f 6/10/12 26/37/12 38/52/12 21/29/12
f 25/36/13 8/12/13 23/33/13 39/54/13
f 7/11/14 25/36/14 39/54/14 22/31/14
f 24/35/15 5/8/15 36/48/15 40/56/15
f 8/12/16 24/35/16 40/56/16 23/33/16
f 35/46/17 11/15/17 29/40/17 41/58/17
f 3/6/18 35/46/18 41/58/18 17/23/18
f 17/23/19 41/58/19 33/44/19 4/7/19
f 34/45/20 12/16/20 30/41/20 42/59/20
f 8/12/21 34/45/21 42/59/21 18/24/21
f 18/24/22 42/59/22 35/46/22 3/6/22
f 32/43/23 9/13/23 31/42/23 43/60/23
f 7/11/24 32/43/24 43/60/24 25/36/24
f 25/36/25 43/60/25 34/45/25 8/12/25
f 29/40/3 11/15/3 30/41/3 44/61/3
f 10/14/3 29/40/3 44/61/3 28/39/3
f 28/39/3 44/61/3 31/42/3 9/13/3
f 13/17/26 2/4/26 14/19/26 45/62/26
f 1/1/27 13/17/27 45/62/27 20/27/27
f 20/27/28 45/62/28 27/38/28 5/9/28
f 15/20/29 4/7/29 16/22/29 46/63/29
f 2/4/30 15/20/30 46/63/30 14/19/30
f 14/19/31 46/63/31 26/37/31 6/10/31
f 33/44/3 10/14/3 28/39/3 47/64/3
f 4/7/3 33/44/3 47/64/3 16/22/3
f 16/22/3 47/64/3 32/43/3 7/11/3
f 19/25/32 1/2/32 20/28/32 48/65/32
f 3/6/33 19/25/33 48/65/33 18/24/33
f 18/24/34 48/65/34 24/35/34 8/12/34
f 13/18/35 1/3/35 19/26/35 49/66/35
f 2/5/36 13/18/36 49/66/36 15/21/36
f 15/21/37 49/66/37 17/23/37 4/7/37
f 37/51/38 21/30/38 38/53/38
f 36/49/39 37/51/39 40/57/39
f 39/55/40 38/53/40 22/32/40
f 23/34/41 40/57/41 39/55/41
f 40/57/42 37/51/42 39/55/42
f 39/55/43 37/51/43 38/53/43
f 83/117/44 59/82/44 52/72/44 61/85/44
f 82/116/45 66/94/45 53/73/45 62/87/45
f 81/115/46 68/96/46 7/11/46 16/22/46
f 80/114/47 69/97/47 54/75/47 57/79/47
f 79/113/48 70/98/48 12/16/48 31/42/48
f 78/112/49 71/99/49 11/15/49 30/41/49
f 77/111/50 33/44/50 10/14/50 29/40/50
f 69/97/51 73/103/51 63/88/51 54/75/51
f 53/74/52 72/100/52 73/103/52 69/97/52
f 68/96/53 74/105/53 64/90/53 7/11/53
f 54/75/54 63/88/54 74/105/54 68/96/54
f 67/95/55 75/107/55 65/92/55 55/76/55
f 7/11/56 64/90/56 75/107/56 67/95/56
f 66/94/57 76/109/57 72/101/57 53/73/57
f 55/76/58 65/92/58 76/109/58 66/94/58
f 71/99/59 77/111/59 29/40/59 11/15/59
f 52/72/60 59/82/60 77/111/60 71/99/60
f 59/82/61 4/7/61 33/44/61 77/111/61
f 70/98/62 78/112/62 30/41/62 12/16/62
f 55/76/63 60/83/63 78/112/63 70/98/63
f 60/83/64 52/72/64 71/99/64 78/112/64
f 32/43/65 79/113/65 31/42/65 9/13/65
f 7/11/66 67/95/66 79/113/66 32/43/66
f 67/95/67 55/76/67 70/98/67 79/113/67
f 56/77/68 80/114/68 57/79/68 51/70/68
f 50/67/69 62/86/69 80/114/69 56/77/69
f 62/86/70 53/74/70 69/97/70 80/114/70
f 58/80/71 81/115/71 16/22/71 4/7/71
f 51/70/72 57/79/72 81/115/72 58/80/72
f 57/79/73 54/75/73 68/96/73 81/115/73
f 61/84/74 82/116/74 62/87/74 50/68/74
f 52/72/75 60/83/75 82/116/75 61/84/75
f 60/83/76 55/76/76 66/94/76 82/116/76
f 56/78/77 83/117/77 61/85/77 50/69/77
f 51/71/78 58/81/78 83/117/78 56/78/78
f 58/81/79 4/7/79 59/82/79 83/117/79
f 73/104/80 74/106/80 63/89/80
f 72/102/81 76/110/81 73/104/81
f 75/108/82 64/91/82 74/106/82
f 65/93/83 75/108/83 76/110/83
f 76/110/84 75/108/84 73/104/84
f 75/108/85 74/106/85 73/104/85
