# Blender 3.4.1
# www.blender.org
mtllib skirt.mtl
o Cylinder
v 0.000000 20.954935 -7.716908
v 0.000000 28.485149 -5.484139
v 1.505494 18.817747 -7.568630
v 1.069902 28.485149 -5.378762
v 2.953133 20.954935 -7.129494
v 2.098689 28.485149 -5.066683
v 4.287285 18.817747 -6.416375
v 3.046824 28.485149 -4.559895
v 5.456678 20.954935 -5.456678
v 3.877872 28.485149 -3.877872
v 6.416375 18.817747 -4.287285
v 4.559895 28.485149 -3.046824
v 7.129494 20.954935 -2.953133
v 5.066683 28.485149 -2.098689
v 7.568630 18.817747 -1.505494
v 5.378762 28.485149 -1.069902
v 7.716908 20.954935 -0.000000
v 5.484139 28.485149 0.000000
v 7.568630 18.817747 1.505494
v 5.378762 28.485149 1.069902
v 7.129494 20.954935 2.953133
v 5.066683 28.485149 2.098689
v 6.416375 18.817747 4.287285
v 4.559895 28.485149 3.046824
v 5.456678 20.954935 5.456678
v 3.877872 28.485149 3.877872
v 4.287285 18.817747 6.416375
v 3.046824 28.485149 4.559895
v 2.953133 20.954935 7.129494
v 2.098689 28.485149 5.066683
v 1.505494 18.817747 7.568630
v 1.069902 28.485149 5.378762
v 0.000000 20.954935 7.716908
v 0.000000 28.485149 5.484139
v -1.505494 18.817747 7.568630
v -1.069902 28.485149 5.378762
v -2.953133 20.954935 7.129494
v -2.098689 28.485149 5.066683
v -4.287285 18.817747 6.416375
v -3.046824 28.485149 4.559895
v -5.456678 20.954935 5.456678
v -3.877872 28.485149 3.877872
v -6.416375 18.817747 4.287285
v -4.559895 28.485149 3.046824
v -7.129494 20.954935 2.953133
v -5.066683 28.485149 2.098689
v -7.568630 18.817747 1.505494
v -5.378762 28.485149 1.069902
v -7.716908 20.954935 -0.000000
v -5.484139 28.485149 0.000000
v -7.568630 18.817747 -1.505494
v -5.378762 28.485149 -1.069902
v -7.129494 20.954935 -2.953133
v -5.066683 28.485149 -2.098689
v -6.416375 18.817747 -4.287285
v -4.559895 28.485149 -3.046824
v -5.456678 20.954935 -5.456678
v -3.877872 28.485149 -3.877872
v -4.287285 18.817747 -6.416375
v -3.046824 28.485149 -4.559895
v -2.953133 20.954935 -7.129494
v -2.098689 28.485149 -5.066683
v -1.505494 18.817747 -7.568630
v -1.069902 28.485149 -5.378762
v 0.000000 20.733822 -8.245049
v 0.000000 28.779398 -5.859470
v 1.608529 18.450365 -8.086622
v 1.143126 28.779398 -5.746881
v 3.155244 20.733822 -7.617432
v 2.242322 28.779398 -5.413444
v 4.580704 18.450365 -6.855507
v 3.255347 28.779398 -4.871971
v 5.830130 20.733822 -5.830130
v 4.143270 28.779398 -4.143270
v 6.855507 18.450365 -4.580704
v 4.871971 28.779398 -3.255347
v 7.617432 20.733822 -3.155244
v 5.413444 28.779398 -2.242322
v 8.086622 18.450365 -1.608529
v 5.746881 28.779398 -1.143126
v 8.245049 20.733822 0.000000
v 5.859470 28.779398 0.000000
v 8.086622 18.450365 1.608529
v 5.746881 28.779398 1.143126
v 7.617432 20.733822 3.155244
v 5.413444 28.779398 2.242322
v 6.855507 18.450365 4.580704
v 4.871971 28.779398 3.255347
v 5.830130 20.733822 5.830130
v 4.143270 28.779398 4.143270
v 4.580704 18.450365 6.855507
v 3.255347 28.779398 4.871971
v 3.155244 20.733822 7.617432
v 2.242322 28.779398 5.413444
v 1.608529 18.450365 8.086622
v 1.143126 28.779398 5.746881
v 0.000000 20.733822 8.245049
v 0.000000 28.779398 5.859470
v -1.608529 18.450365 8.086622
v -1.143126 28.779398 5.746881
v -3.155244 20.733822 7.617432
v -2.242322 28.779398 5.413444
v -4.580704 18.450365 6.855507
v -3.255347 28.779398 4.871971
v -5.830130 20.733822 5.830130
v -4.143270 28.779398 4.143270
v -6.855507 18.450365 4.580704
v -4.871971 28.779398 3.255347
v -7.617432 20.733822 3.155244
v -5.413444 28.779398 2.242322
v -8.086622 18.450365 1.608529
v -5.746881 28.779398 1.143126
v -8.245049 20.733822 0.000000
v -5.859470 28.779398 0.000000
v -8.086622 18.450365 -1.608529
v -5.746881 28.779398 -1.143126
v -7.617432 20.733822 -3.155244
v -5.413444 28.779398 -2.242322
v -6.855507 18.450365 -4.580704
v -4.871971 28.779398 -3.255347
v -5.830130 20.733822 -5.830130
v -4.143270 28.779398 -4.143270
v -4.580704 18.450365 -6.855507
v -3.255347 28.779398 -4.871971
v -3.155244 20.733822 -7.617432
v -2.242322 28.779398 -5.413444
v -1.608529 18.450365 -8.086622
v -1.143126 28.779398 -5.746881
vn -0.2943 -0.2450 0.9238
vn -0.0816 -0.2450 0.9661
vn -0.6254 -0.2450 0.7408
vn -0.4451 -0.2450 0.8613
vn -0.8613 -0.2450 0.4451
vn -0.7408 -0.2450 0.6254
vn -0.9661 -0.2450 0.0816
vn -0.9238 -0.2450 0.2943
vn -0.9238 -0.2450 -0.2943
vn -0.9661 -0.2450 -0.0816
vn -0.7408 -0.2450 -0.6254
vn -0.8613 -0.2450 -0.4451
vn -0.4451 -0.2450 -0.8613
vn -0.6254 -0.2450 -0.7408
vn -0.0816 -0.2450 -0.9661
vn -0.2943 -0.2450 -0.9238
vn 0.2943 -0.2450 -0.9238
vn 0.0816 -0.2450 -0.9661
vn 0.6254 -0.2450 -0.7408
vn 0.4451 -0.2450 -0.8613
vn 0.8613 -0.2450 -0.4451
vn 0.7408 -0.2450 -0.6254
vn 0.9661 -0.2450 -0.0816
vn 0.9238 -0.2450 -0.2943
vn 0.9238 -0.2450 0.2943
vn 0.9661 -0.2450 0.0816
vn 0.7408 -0.2450 0.6254
vn 0.8613 -0.2450 0.4451
vn 0.4451 -0.2450 0.8613
vn 0.6254 -0.2450 0.7408
vn -0.0000 -1.0000 -0.0000
vn 0.0816 -0.2450 0.9661
vn 0.2943 -0.2450 0.9238
vn 0.2943 0.2450 -0.9238
vn 0.0816 0.2450 -0.9661
vn 0.6254 0.2450 -0.7408
vn 0.4451 0.2450 -0.8613
vn 0.8613 0.2450 -0.4451
vn 0.7408 0.2450 -0.6254
vn 0.9661 0.2450 -0.0816
vn 0.9238 0.2450 -0.2943
vn 0.9238 0.2450 0.2943
vn 0.9661 0.2450 0.0816
vn 0.7408 0.2450 0.6254
vn 0.8613 0.2450 0.4451
vn 0.4451 0.2450 0.8613
vn 0.6254 0.2450 0.7408
vn 0.0816 0.2450 0.9661
vn 0.2943 0.2450 0.9238
vn -0.2943 0.2450 0.9238
vn -0.0816 0.2450 0.9661
vn -0.6254 0.2450 0.7408
vn -0.4451 0.2450 0.8613
vn -0.8613 0.2450 0.4451
vn -0.7408 0.2450 0.6254
vn -0.9661 0.2450 0.0816
vn -0.9238 0.2450 0.2943
vn -0.9238 0.2450 -0.2943
vn -0.9661 0.2450 -0.0816
vn -0.7408 0.2450 -0.6254
vn -0.8613 0.2450 -0.4451
vn -0.4451 0.2450 -0.8613
vn -0.6254 0.2450 -0.7408
vn -0.0000 1.0000 -0.0000
vn -0.0816 0.2450 -0.9661
vn -0.2943 0.2450 -0.9238
vn -0.7306 -0.5497 -0.4051
vn -0.8300 -0.5497 0.0947
vn 0.5199 -0.5497 0.6538
vn -0.8030 -0.5497 0.2301
vn 0.8030 -0.5497 0.2301
vn -0.5199 -0.5497 0.6538
vn 0.8300 -0.5497 0.0947
vn 0.7306 -0.5497 -0.4051
vn 0.0947 -0.5497 0.8300
vn 0.6538 -0.5497 -0.5199
vn 0.2301 -0.5497 -0.8030
vn 0.6538 -0.5497 0.5199
vn 0.0947 -0.5497 -0.8300
vn -0.4051 -0.5497 -0.7306
vn -0.4051 -0.5497 0.7306
vn -0.5199 -0.5497 -0.6538
vn -0.8030 -0.5497 -0.2301
vn 0.2301 -0.5497 0.8030
vn -0.8300 -0.5497 -0.0947
vn -0.7306 -0.5497 0.4051
vn 0.7306 -0.5497 0.4051
vn 0.8300 -0.5497 -0.0947
vn -0.2301 -0.5497 0.8030
vn 0.8030 -0.5497 -0.2301
vn 0.5199 -0.5497 -0.6538
vn 0.4051 -0.5497 0.7306
vn 0.4051 -0.5497 -0.7306
vn -0.0947 -0.5497 -0.8300
vn -0.6538 -0.5497 0.5199
vn -0.2301 -0.5497 -0.8030
vn -0.6538 -0.5497 -0.5199
vn -0.0947 -0.5497 0.8300
vt 1.000000 0.500000
vt 0.000000 0.500000
vt 1.000000 1.000000
vt 0.250000 0.490000
vt 0.000000 1.000000
vt 0.968750 0.500000
vt 0.968750 1.000000
vt 0.296822 0.485388
vt 0.937500 0.500000
vt 0.937500 1.000000
vt 0.341844 0.471731
vt 0.906250 0.500000
vt 0.906250 1.000000
vt 0.383337 0.449553
vt 0.875000 0.500000
vt 0.875000 1.000000
vt 0.419706 0.419706
vt 0.843750 0.500000
vt 0.843750 1.000000
vt 0.449553 0.383337
vt 0.812500 0.500000
vt 0.812500 1.000000
vt 0.471731 0.341844
vt 0.781250 0.500000
vt 0.781250 1.000000
vt 0.485388 0.296822
vt 0.750000 0.500000
vt 0.750000 1.000000
vt 0.490000 0.250000
vt 0.718750 0.500000
vt 0.718750 1.000000
vt 0.485388 0.203178
vt 0.687500 0.500000
vt 0.687500 1.000000
vt 0.471731 0.158156
vt 0.656250 0.500000
vt 0.656250 1.000000
vt 0.449553 0.116663
vt 0.625000 0.500000
vt 0.625000 1.000000
vt 0.419706 0.080294
vt 0.593750 0.500000
vt 0.593750 1.000000
vt 0.383337 0.050447
vt 0.562500 0.500000
vt 0.562500 1.000000
vt 0.341844 0.028269
vt 0.531250 0.500000
vt 0.531250 1.000000
vt 0.296822 0.014612
vt 0.500000 0.500000
vt 0.500000 1.000000
vt 0.250000 0.010000
vt 0.468750 0.500000
vt 0.468750 1.000000
vt 0.203178 0.014612
vt 0.437500 0.500000
vt 0.437500 1.000000
vt 0.158156 0.028269
vt 0.406250 0.500000
vt 0.406250 1.000000
vt 0.116663 0.050447
vt 0.375000 0.500000
vt 0.375000 1.000000
vt 0.080294 0.080294
vt 0.343750 0.500000
vt 0.343750 1.000000
vt 0.050447 0.116663
vt 0.312500 0.500000
vt 0.312500 1.000000
vt 0.028269 0.158156
vt 0.281250 0.500000
vt 0.281250 1.000000
vt 0.014612 0.203178
vt 0.250000 0.500000
vt 0.250000 1.000000
vt 0.010000 0.250000
vt 0.218750 0.500000
vt 0.218750 1.000000
vt 0.014612 0.296822
vt 0.187500 0.500000
vt 0.187500 1.000000
vt 0.028269 0.341844
vt 0.156250 0.500000
vt 0.156250 1.000000
vt 0.050447 0.383337
vt 0.125000 0.500000
vt 0.125000 1.000000
vt 0.080294 0.419706
vt 0.093750 0.500000
vt 0.093750 1.000000
vt 0.116663 0.449553
vt 0.062500 0.500000
vt 0.158156 0.471731
vt 0.062500 1.000000
vt 0.031250 0.500000
vt 0.203178 0.485388
vt 0.031250 1.000000
vt 1.000000 0.500000
vt 0.000000 0.500000
vt 1.000000 1.000000
vt 0.250000 0.490000
vt 0.000000 1.000000
vt 0.968750 0.500000
vt 0.968750 1.000000
vt 0.296822 0.485388
vt 0.937500 0.500000
vt 0.937500 1.000000
vt 0.341844 0.471731
vt 0.906250 0.500000
vt 0.906250 1.000000
vt 0.383337 0.449553
vt 0.875000 0.500000
vt 0.875000 1.000000
vt 0.419706 0.419706
vt 0.843750 0.500000
vt 0.843750 1.000000
vt 0.449553 0.383337
vt 0.812500 0.500000
vt 0.812500 1.000000
vt 0.471731 0.341844
vt 0.781250 0.500000
vt 0.781250 1.000000
vt 0.485388 0.296822
vt 0.750000 0.500000
vt 0.750000 1.000000
vt 0.490000 0.250000
vt 0.718750 0.500000
vt 0.718750 1.000000
vt 0.485388 0.203178
vt 0.687500 0.500000
vt 0.687500 1.000000
vt 0.471731 0.158156
vt 0.656250 0.500000
vt 0.656250 1.000000
vt 0.449553 0.116663
vt 0.625000 0.500000
vt 0.625000 1.000000
vt 0.419706 0.080294
vt 0.593750 0.500000
vt 0.593750 1.000000
vt 0.383337 0.050447
vt 0.562500 0.500000
vt 0.562500 1.000000
vt 0.341844 0.028269
vt 0.531250 0.500000
vt 0.531250 1.000000
vt 0.296822 0.014612
vt 0.500000 0.500000
vt 0.500000 1.000000
vt 0.250000 0.010000
vt 0.468750 0.500000
vt 0.468750 1.000000
vt 0.203178 0.014612
vt 0.437500 0.500000
vt 0.437500 1.000000
vt 0.158156 0.028269
vt 0.406250 0.500000
vt 0.406250 1.000000
vt 0.116663 0.050447
vt 0.375000 0.500000
vt 0.375000 1.000000
vt 0.080294 0.080294
vt 0.343750 0.500000
vt 0.343750 1.000000
vt 0.050447 0.116663
vt 0.312500 0.500000
vt 0.312500 1.000000
vt 0.028269 0.158156
vt 0.281250 0.500000
vt 0.281250 1.000000
vt 0.014612 0.203178
vt 0.250000 0.500000
vt 0.250000 1.000000
vt 0.010000 0.250000
vt 0.218750 0.500000
vt 0.218750 1.000000
vt 0.014612 0.296822
vt 0.187500 0.500000
vt 0.187500 1.000000
vt 0.028269 0.341844
vt 0.156250 0.500000
vt 0.156250 1.000000
vt 0.050447 0.383337
vt 0.125000 0.500000
vt 0.125000 1.000000
vt 0.080294 0.419706
vt 0.093750 0.500000
vt 0.093750 1.000000
vt 0.116663 0.449553
vt 0.062500 0.500000
vt 0.158156 0.471731
vt 0.062500 1.000000
vt 0.031250 0.500000
vt 0.203178 0.485388
vt 0.031250 1.000000
s 0
f 1/1/1 3/6/1 4/7/1 2/3/1
f 3/6/2 5/9/2 6/10/2 4/7/2
f 5/9/3 7/12/3 8/13/3 6/10/3
f 7/12/4 9/15/4 10/16/4 8/13/4
f 9/15/5 11/18/5 12/19/5 10/16/5
f 11/18/6 13/21/6 14/22/6 12/19/6
f 13/21/7 15/24/7 16/25/7 14/22/7
f 15/24/8 17/27/8 18/28/8 16/25/8
f 17/27/9 19/30/9 20/31/9 18/28/9
f 19/30/10 21/33/10 22/34/10 20/31/10
f 21/33/11 23/36/11 24/37/11 22/34/11
f 23/36/12 25/39/12 26/40/12 24/37/12
f 25/39/13 27/42/13 28/43/13 26/40/13
f 27/42/14 29/45/14 30/46/14 28/43/14
f 29/45/15 31/48/15 32/49/15 30/46/15
f 31/48/16 33/51/16 34/52/16 32/49/16
f 33/51/17 35/54/17 36/55/17 34/52/17
f 35/54/18 37/57/18 38/58/18 36/55/18
f 37/57/19 39/60/19 40/61/19 38/58/19
f 39/60/20 41/63/20 42/64/20 40/61/20
f 41/63/21 43/66/21 44/67/21 42/64/21
f 43/66/22 45/69/22 46/70/22 44/67/22
f 45/69/23 47/72/23 48/73/23 46/70/23
f 47/72/24 49/75/24 50/76/24 48/73/24
f 49/75/25 51/78/25 52/79/25 50/76/25
f 51/78/26 53/81/26 54/82/26 52/79/26
f 53/81/27 55/84/27 56/85/27 54/82/27
f 55/84/28 57/87/28 58/88/28 56/85/28
f 57/87/29 59/90/29 60/91/29 58/88/29
f 59/90/30 61/93/30 62/95/30 60/91/30
f 4/8/31 6/11/31 8/14/31 10/17/31 12/20/31 14/23/31 16/26/31 18/29/31 20/32/31 22/35/31 24/38/31 26/41/31 28/44/31 30/47/31 32/50/31 34/53/31 36/56/31 38/59/31 40/62/31 42/65/31 44/68/31 46/71/31 48/74/31 50/77/31 52/80/31 54/83/31 56/86/31 58/89/31 60/92/31 62/94/31 64/97/31 2/4/31
f 61/93/32 63/96/32 64/98/32 62/95/32
f 63/96/33 1/2/33 2/5/33 64/98/33
f 65/99/34 66/101/34 68/105/34 67/104/34
f 67/104/35 68/105/35 70/108/35 69/107/35
f 69/107/36 70/108/36 72/111/36 71/110/36
f 71/110/37 72/111/37 74/114/37 73/113/37
f 73/113/38 74/114/38 76/117/38 75/116/38
f 75/116/39 76/117/39 78/120/39 77/119/39
f 77/119/40 78/120/40 80/123/40 79/122/40
f 79/122/41 80/123/41 82/126/41 81/125/41
f 81/125/42 82/126/42 84/129/42 83/128/42
f 83/128/43 84/129/43 86/132/43 85/131/43
f 85/131/44 86/132/44 88/135/44 87/134/44
f 87/134/45 88/135/45 90/138/45 89/137/45
f 89/137/46 90/138/46 92/141/46 91/140/46
f 91/140/47 92/141/47 94/144/47 93/143/47
f 93/143/48 94/144/48 96/147/48 95/146/48
f 95/146/49 96/147/49 98/150/49 97/149/49
f 97/149/50 98/150/50 100/153/50 99/152/50
f 99/152/51 100/153/51 102/156/51 101/155/51
f 101/155/52 102/156/52 104/159/52 103/158/52
f 103/158/53 104/159/53 106/162/53 105/161/53
f 105/161/54 106/162/54 108/165/54 107/164/54
f 107/164/55 108/165/55 110/168/55 109/167/55
f 109/167/56 110/168/56 112/171/56 111/170/56
f 111/170/57 112/171/57 114/174/57 113/173/57
f 113/173/58 114/174/58 116/177/58 115/176/58
f 115/176/59 116/177/59 118/180/59 117/179/59
f 117/179/60 118/180/60 120/183/60 119/182/60
f 119/182/61 120/183/61 122/186/61 121/185/61
f 121/185/62 122/186/62 124/189/62 123/188/62
f 123/188/63 124/189/63 126/193/63 125/191/63
f 68/106/64 66/102/64 128/195/64 126/192/64 124/190/64 122/187/64 120/184/64 118/181/64 116/178/64 114/175/64 112/172/64 110/169/64 108/166/64 106/163/64 104/160/64 102/157/64 100/154/64 98/151/64 96/148/64 94/145/64 92/142/64 90/139/64 88/136/64 86/133/64 84/130/64 82/127/64 80/124/64 78/121/64 76/118/64 74/115/64 72/112/64 70/109/64
f 125/191/65 126/193/65 128/196/65 127/194/65
f 127/194/66 128/196/66 66/103/66 65/100/66
f 11/18/67 9/15/67 73/113/67 75/116/67
f 29/45/68 27/42/68 91/140/68 93/143/68
f 47/72/69 45/69/69 109/167/69 111/170/69
f 3/6/70 1/1/70 65/99/70 67/104/70
f 1/2/71 63/96/71 127/194/71 65/100/71
f 21/33/72 19/30/72 83/128/72 85/131/72
f 39/60/73 37/57/73 101/155/73 103/158/73
f 57/87/74 55/84/74 119/182/74 121/185/74
f 13/21/75 11/18/75 75/116/75 77/119/75
f 31/48/76 29/45/76 93/143/76 95/146/76
f 49/75/77 47/72/77 111/170/77 113/173/77
f 5/9/78 3/6/78 67/104/78 69/107/78
f 23/36/79 21/33/79 85/131/79 87/134/79
f 41/63/80 39/60/80 103/158/80 105/161/80
f 59/90/81 57/87/81 121/185/81 123/188/81
f 15/24/82 13/21/82 77/119/82 79/122/82
f 33/51/83 31/48/83 95/146/83 97/149/83
f 51/78/84 49/75/84 113/173/84 115/176/84
f 7/12/85 5/9/85 69/107/85 71/110/85
f 25/39/86 23/36/86 87/134/86 89/137/86
f 43/66/87 41/63/87 105/161/87 107/164/87
f 61/93/88 59/90/88 123/188/88 125/191/88
f 17/27/89 15/24/89 79/122/89 81/125/89
f 35/54/90 33/51/90 97/149/90 99/152/90
f 53/81/91 51/78/91 115/176/91 117/179/91
f 9/15/92 7/12/92 71/110/92 73/113/92
f 27/42/93 25/39/93 89/137/93 91/140/93
f 45/69/94 43/66/94 107/164/94 109/167/94
f 63/96/95 61/93/95 125/191/95 127/194/95
f 19/30/96 17/27/96 81/125/96 83/128/96
f 37/57/97 35/54/97 99/152/97 101/155/97
f 55/84/98 53/81/98 117/179/98 119/182/98
