# 3ds Max Wavefront OBJ Exporter v0.97b - (c)2007 guruware
# File Created: 27.07.2018 14:43:10

mtllib untitled.mtl

#
# object Proxy
#

v  -4.1157 44.0933 -3.6352
v  -4.3394 43.9071 3.5567
v  -1.8179 44.2041 1.6392
v  4.2958 43.8975 -3.6426
v  1.9006 44.5387 -1.6717
v  1.7787 44.2108 1.6146
v  1.7162 47.0816 -1.0774
v  -1.7019 46.3372 2.1505
v  -1.7242 47.0777 -1.0864
v  5.1542 58.0969 -1.1356
v  5.1543 54.8994 8.6958
v  5.1543 45.4125 5.5635
v  -5.1543 58.1003 -1.1184
v  -5.1769 47.9846 -4.4236
v  -5.1542 45.4093 5.5674
v  5.1542 48.0262 -4.4081
v  4.7854 25.2362 3.9712
v  4.7853 25.2362 -3.9713
v  2.7621 40.3922 -3.5841
v  -2.5291 40.6419 -3.6628
v  -4.7854 25.2362 -3.9712
v  -4.7853 25.2362 3.9713
v  4.2123 43.5960 -3.3045
v  2.7922 40.6337 -3.2505
v  4.1369 44.1224 3.5564
v  4.1462 43.7757 0.9936
v  2.7842 40.7613 3.7465
v  2.6861 40.9028 1.1716
v  -4.0436 43.7794 -3.3004
v  -4.2279 43.6851 0.9930
v  -2.5723 40.8920 -3.3169
v  -3.0343 40.4994 3.6499
v  -2.7736 40.7664 1.1100
v  8.4121 34.0684 1.4640
v  -8.1159 34.0505 -3.7554
v  -8.4512 33.8880 -0.1356
v  5.6208 32.6434 -2.1892
v  5.5417 32.9430 1.5504
v  8.0642 26.5788 2.9224
v  7.5870 28.0776 4.9554
v  -5.5901 32.7682 0.1362
v  8.4888 33.7778 -2.1625
v  10.2712 27.3211 2.9424
v  -8.1439 26.2761 0.4185
v  -5.2444 32.9358 -3.5965
v  9.8084 28.7747 4.9138
v  -10.1369 28.2027 2.4548
v  -7.9228 27.5117 2.6616
v  -10.3513 27.0044 0.2795
v  -0.0073 44.1978 1.6267
v  -0.0607 44.5140 3.5669
v  0.0398 44.7591 -3.6049
v  0.0104 44.5529 -1.6505
v  -1.8668 44.5452 -1.6349
v  0.0000 46.3384 2.1508
v  -0.0000 47.0817 -1.0719
v  0.0000 54.8789 8.7175
v  0.0000 45.4237 5.5717
v  -5.1542 54.9119 8.6826
v  -0.0000 48.0055 -4.4181
v  -0.0000 58.1158 -1.0506
v  1.7028 46.3497 2.1342
v  0.0465 40.8966 -3.6488
v  -0.0000 25.2362 -3.9713
v  -0.0714 40.9908 3.6740
v  0.0000 25.2362 4.5224
v  4.7215 23.7959 3.6114
v  4.7215 23.7959 -3.5915
v  0.8040 23.7959 4.0741
v  0.8039 23.7959 -3.5915
v  -0.8039 23.7959 4.0741
v  -4.7215 23.7959 3.6114
v  -4.7215 23.7959 -3.5915
v  -0.8040 23.7959 -3.5915
v  4.8360 13.9251 4.0869
v  4.7638 13.9445 0.3126
v  4.7142 4.0529 1.6622
v  4.5673 4.0727 -1.7466
v  1.3844 13.9251 4.4381
v  1.4915 4.0288 1.6978
v  1.3122 13.9445 0.3127
v  1.5514 4.0365 -1.6422
v  -1.3122 13.9445 0.3127
v  -1.3844 13.9251 4.4381
v  -1.4914 4.0288 1.6979
v  -4.8360 13.9251 4.0870
v  -4.7141 4.0529 1.6622
v  -4.7638 13.9445 0.3127
v  -4.5673 4.0727 -1.7465
v  10.0488 28.0095 6.5794
v  7.8477 27.3363 6.6421
v  8.6423 24.8407 3.2573
v  10.8190 25.5906 3.2986
v  -10.9066 25.2415 0.3552
v  -10.5497 27.2356 3.9753
v  -8.7268 24.5084 0.4688
v  -8.3586 26.5657 4.2036
v  9.8338 22.2091 9.4470
v  10.2046 21.0446 7.8675
v  8.8336 22.0930 9.3363
v  9.2157 20.8930 7.7087
v  -10.7325 20.1642 4.3690
v  -9.7297 20.0362 4.3058
v  -9.5526 21.0255 6.1017
v  -10.5607 21.1243 6.1118
v  4.7240 3.0293 1.6579
v  1.5013 3.0052 1.6936
v  1.5612 3.0134 -1.9950
v  4.5772 3.0496 -2.0994
v  -1.5513 4.0365 -1.6422
v  -1.5013 3.0052 1.6936
v  -4.7239 3.0293 1.6579
v  -4.5772 3.0496 -2.0994
v  -1.5612 3.0134 -1.9950
v  4.7536 -0.0000 1.6451
v  2.5859 -0.0000 -3.3273
v  1.5309 0.0000 1.6808
v  3.9625 -0.0000 -3.2729
v  -1.5308 0.0000 1.6808
v  -3.9625 -0.0000 -3.2728
v  -4.7535 -0.0000 1.6451
v  -2.5858 0.0000 -3.3272
v  -5.2062 0.0000 7.0040
v  -5.1769 1.6676 7.0040
v  5.1771 1.6676 7.0039
v  5.2064 -0.0000 7.0039
v  -2.2985 0.0000 7.0040
v  2.2986 0.0000 7.0040
v  -2.2692 1.6489 7.0040
v  2.2694 1.6489 7.0040
# 130 vertices

vn -0.2412 0.9699 0.0341
vn 0.1672 0.9850 0.0426
vn 0.9998 -0.0185 0.0021
vn -0.9998 -0.0203 -0.0031
vn -0.0040 -0.9697 -0.2442
vn 0.0053 -0.9698 -0.2437
vn 0.9998 0.0193 -0.0000
vn 0.9998 0.0195 -0.0000
vn 0.9276 -0.3704 0.0483
vn -0.9244 -0.3751 -0.0685
vn -0.9998 0.0195 0.0000
vn -0.9998 0.0193 0.0000
vn 0.9077 -0.4171 0.0463
vn 0.9476 -0.3175 0.0345
vn -0.9387 -0.3408 -0.0526
vn -0.9026 -0.4254 -0.0666
vn 0.7415 0.6709 -0.0038
vn 0.9508 0.3099 -0.0020
vn -0.7405 0.6711 -0.0361
vn -0.9437 0.3225 -0.0729
vn -0.9496 0.3052 -0.0716
vn -0.8395 -0.5433 0.0066
vn -0.9298 -0.3679 0.0098
vn -0.9302 -0.3668 0.0135
vn -0.9420 -0.3349 0.0203
vn -0.9421 -0.3345 0.0255
vn 0.8380 -0.5428 0.0559
vn 0.9288 -0.3632 0.0735
vn 0.1462 -0.3413 -0.9285
vn 0.1439 -0.3499 -0.9257
vn 0.0620 -0.0660 -0.9959
vn 0.1443 -0.3931 -0.9081
vn 0.1429 -0.3908 -0.9093
vn 0.9393 -0.3323 0.0856
vn 0.9289 -0.3638 0.0697
vn 0.0273 0.0471 0.9985
vn -0.0809 0.2887 0.9540
vn -0.0783 0.2797 0.9569
vn -0.2161 0.7137 0.6663
vn -0.0342 0.1588 0.9867
vn -0.0314 0.1680 0.9853
vn -0.1174 -0.0446 0.9921
vn 0.1280 0.6258 0.7694
vn 0.1225 0.6318 0.7654
vn 0.0207 0.0219 -0.9995
vn -0.0334 -0.2325 -0.9720
vn -0.0355 -0.2236 -0.9740
vn -0.0350 -0.2775 -0.9601
vn 0.9576 0.2879 0.0087
vn 0.9451 0.3268 -0.0062
vn -0.9572 0.2820 -0.0645
vn -0.9576 0.2817 -0.0608
vn -0.0003 0.9904 0.1380
vn -0.0016 -0.1697 0.9855
vn 0.0035 0.1630 -0.9866
vn 0.0000 -0.2710 0.9626
vn 0.0002 0.2924 -0.9563
vn 0.0004 -0.9713 -0.2377
vn 0.0185 0.0159 -0.9997
vn 0.0350 0.0309 -0.9989
vn -0.0000 -0.0932 -0.9957
vn 0.0302 0.0067 -0.9995
vn -0.0000 -0.1205 -0.9927
vn -0.0206 -0.0134 0.9997
vn -0.0175 0.0292 0.9994
vn -0.0748 -0.0022 0.9972
vn 0.0054 0.0608 0.9981
vn 0.0000 -0.0778 0.9970
vn -0.1148 -0.1118 0.9871
vn 0.9998 -0.0207 -0.0020
vn 0.9997 -0.0251 -0.0000
vn 0.1148 -0.1118 0.9871
vn 0.1151 -0.1218 0.9859
vn -0.8732 -0.4874 0.0000
vn -0.9469 -0.3214 0.0000
vn -0.9563 -0.2922 0.0021
vn -0.0000 -0.3115 -0.9502
vn -0.0000 -0.3036 -0.9528
vn 0.8732 -0.4874 -0.0000
vn 0.9563 -0.2922 0.0020
vn -0.1149 -0.1019 0.9881
vn -0.1151 -0.1218 0.9859
vn -0.9997 -0.0251 0.0000
vn 0.9998 0.0021 -0.0191
vn 0.9998 0.0005 -0.0177
vn 0.9992 -0.0009 -0.0404
vn 0.9991 0.0076 -0.0410
vn 0.1026 -0.1052 0.9891
vn 0.0922 -0.1076 0.9899
vn 0.1149 -0.1019 0.9881
vn 0.0209 -0.1254 0.9919
vn 0.0119 -0.1227 0.9924
vn -0.9993 -0.0371 0.0107
vn -0.9991 -0.0385 0.0173
vn -0.9998 -0.0115 -0.0171
vn -0.9998 -0.0149 -0.0137
vn -0.0000 -0.0872 -0.9962
vn -0.0035 -0.0935 -0.9956
vn -0.0327 0.2605 -0.9649
vn -0.0365 0.2591 -0.9652
vn 0.9993 -0.0371 0.0107
vn 0.9991 -0.0385 0.0173
vn 0.9998 -0.0149 -0.0137
vn 0.9469 -0.3214 -0.0000
vn -0.0209 -0.1254 0.9919
vn -0.1026 -0.1052 0.9891
vn -0.0922 -0.1076 0.9899
vn -0.9992 -0.0009 -0.0404
vn -0.9998 0.0021 -0.0191
vn -0.9998 0.0005 -0.0177
vn -0.9998 -0.0207 -0.0020
vn 0.0327 0.2605 -0.9649
vn 0.0034 -0.0935 -0.9956
vn 0.9575 0.2880 0.0124
vn 0.9801 0.1669 0.1070
vn -0.2101 0.7192 0.6622
vn -0.1920 0.6856 0.7022
vn -0.2039 0.7166 0.6670
vn -0.9648 -0.2609 -0.0341
vn 0.1611 -0.4296 -0.8885
vn -0.9886 0.1496 0.0150
vn -0.9886 0.1497 0.0150
vn -0.0335 -0.2751 -0.9608
vn -0.0699 -0.3587 -0.9308
vn -0.0532 -0.3162 -0.9472
vn 0.9387 -0.3326 0.0907
vn 0.9667 -0.2521 0.0436
vn 0.1158 0.6286 0.7690
vn 0.9805 0.0567 0.1883
vn -0.1485 0.4297 0.8907
vn -0.1401 0.4329 0.8905
vn -0.9736 -0.2180 -0.0678
vn 0.1759 -0.4695 -0.8652
vn 0.2248 -0.7135 -0.6637
vn 0.0269 -0.8016 0.5973
vn -0.9962 0.0303 0.0815
vn -0.1286 -0.6290 -0.7667
vn -0.1370 -0.6260 -0.7677
vn 0.9786 -0.2052 0.0166
vn 0.9786 -0.2053 0.0166
vn 0.1005 0.5935 0.7985
vn 0.0321 0.3191 0.9472
vn -0.0803 -0.8697 0.4870
vn 0.9985 0.0108 -0.0529
vn 0.0111 -0.0041 0.9999
vn -0.9907 -0.1000 -0.0919
vn -0.9995 -0.0095 0.0299
vn -0.0276 0.3528 -0.9353
vn -0.0366 0.3561 -0.9337
vn 0.9998 -0.0115 -0.0171
vn 0.9995 -0.0095 0.0298
vn -0.0119 -0.1227 0.9924
vn -0.0111 -0.0041 0.9999
vn -0.9991 0.0076 -0.0410
vn -0.9953 -0.0434 -0.0864
vn -0.9985 0.0108 -0.0529
vn 0.0365 0.2591 -0.9652
vn 0.0366 0.3561 -0.9337
vn 0.9953 -0.0434 -0.0864
vn 0.9960 -0.0215 -0.0867
vn -0.9512 -0.2348 -0.2004
vn -0.9979 -0.0621 0.0205
vn 0.0369 0.3524 -0.9351
vn 0.0035 0.3715 -0.9284
vn -0.0000 -1.0000 0.0000
vn 0.9907 -0.1000 -0.0919
vn 0.9979 -0.0621 0.0205
vn -0.9781 -0.1366 -0.1573
vn -0.9960 -0.0215 -0.0867
vn 0.0276 0.3528 -0.9353
vn -0.0035 0.3715 -0.9284
vn 0.0000 -1.0000 0.0000
vn -0.9963 0.0175 -0.0841
vn -0.9964 0.0153 -0.0835
vn 0.9964 0.0153 -0.0835
vn 0.9963 0.0175 -0.0841
vn 0.9897 -0.0154 0.1420
vn -0.9896 -0.0175 0.1427
vn -0.9897 -0.0154 0.1420
vn 0.0062 0.9689 0.2473
vn -0.0045 0.9687 0.2481
vn 0.0000 0.0000 1.0000
vn -0.1675 0.9849 0.0440
vn 0.2374 0.9710 0.0296
vn -0.0071 -0.9725 -0.2328
vn 0.0099 -0.9724 -0.2331
vn 0.9401 -0.3390 0.0365
vn -0.9457 -0.3213 -0.0496
vn 0.0580 -0.0396 -0.9975
vn 0.0367 0.0371 0.9986
vn -0.0926 -0.0255 0.9954
vn -0.0002 0.0241 -0.9997
vn 0.0048 0.1004 -0.9949
vn 0.0000 -0.2917 0.9565
vn 0.0002 0.2728 -0.9621
vn 0.0187 -0.0147 -0.9997
vn 0.9802 0.1668 0.1071
vn -0.9736 -0.2180 -0.0679
vn 0.2164 -0.7164 -0.6633
vn 0.0270 -0.8016 0.5973
vn 0.0405 0.3160 0.9479
vn -0.0804 -0.8697 0.4870
vn 0.9781 -0.1366 -0.1573
vn 0.9512 -0.2348 -0.2004
vn -0.0369 0.3524 -0.9351
vn 0.9896 -0.0175 0.1427
vn 0.0045 0.9687 0.2481
vn -0.0062 0.9689 0.2473
# 208 vertex normals

vt 0.2500 1.0000 0.0000
vt 0.2500 0.6667 0.0000
vt 0.3289 0.7456 0.0000
vt 0.5000 1.0000 0.0000
vt 0.4211 0.9211 0.0000
vt 0.4211 0.7456 0.0000
vt 0.3289 0.9211 0.0000
vt 1.0000 0.6667 0.0000
vt 0.7500 0.6667 0.0000
vt 0.7500 0.3333 0.0000
vt 0.2500 0.3333 0.0000
vt 0.5000 0.3333 0.0000
vt 1.0000 0.3333 0.0000
vt 0.7500 0.5933 0.0000
vt 0.0000 0.5933 0.0000
vt 0.0000 0.3333 0.0000
vt 0.7311 0.6478 0.0000
vt 0.7311 0.6122 0.0000
vt 0.5000 0.6667 0.0000
vt 0.5189 0.6478 0.0000
vt 0.5000 0.5933 0.0000
vt 0.5189 0.6122 0.0000
vt 0.0000 0.6667 0.0000
vt 0.0189 0.6478 0.0000
vt 0.2311 0.6478 0.0000
vt 0.0189 0.6122 0.0000
vt 0.2500 0.5933 0.0000
vt 0.2311 0.6122 0.0000
vt 0.3750 0.7456 0.0000
vt 0.3750 0.6667 0.0000
vt 0.3750 1.0000 0.0000
vt 0.3750 0.9211 0.0000
vt 0.6250 0.6667 0.0000
vt 0.6250 0.3333 0.0000
vt 0.1250 0.3333 0.0000
vt 0.1250 0.6667 0.0000
vt 0.2500 0.8333 0.0000
vt 0.5000 0.8333 0.0000
vt 0.8750 0.5933 0.0000
vt 0.8750 0.6667 0.0000
vt 1.0000 0.5933 0.0000
vt 0.8750 0.3333 0.0000
vt 0.3750 0.5933 0.0000
vt 0.3750 0.3333 0.0000
vt 0.4904 0.3238 0.0000
vt 0.4904 0.0096 0.0000
vt 0.3846 0.3238 0.0000
vt 0.3750 0.0000 0.0000
vt 0.3846 0.0096 0.0000
vt 0.5000 0.0000 0.0000
vt 0.3654 0.3238 0.0000
vt 0.2596 0.3238 0.0000
vt 0.2500 0.0000 0.0000
vt 0.2596 0.0096 0.0000
vt 0.3654 0.0096 0.0000
vt 0.5050 0.6616 0.0000
vt 0.5050 0.5984 0.0000
vt 0.7450 0.5984 0.0000
vt 0.7450 0.6616 0.0000
vt 0.0050 0.6616 0.0000
vt 0.2450 0.6616 0.0000
vt 0.0050 0.5984 0.0000
vt 0.2450 0.5984 0.0000
vt 0.5310 0.6357 0.0000
vt 0.7190 0.6357 0.0000
vt 0.5310 0.6243 0.0000
vt 0.7190 0.6243 0.0000
vt 0.0310 0.6357 0.0000
vt 0.0310 0.6243 0.0000
vt 0.2190 0.6243 0.0000
vt 0.2190 0.6357 0.0000
vt 0.2596 0.3262 0.0000
vt 0.4904 0.3274 0.0000
vt 0.4904 0.3262 0.0000
vt 0.3654 0.3261 0.0000
vt 0.3846 0.3261 0.0000
vt 0.3654 0.3275 0.0000
vt 0.3845 0.3238 0.0000
# 78 texture coords

o Proxy
g Proxy
usemtl Default
s off
f 1/1/1 2/2/1 3/3/1 
f 4/4/2 5/5/2 6/6/2 
f 6/6/3 5/5/3 7/5/3 
f 3/3/4 8/3/4 9/7/4 
f 10/8/3 11/9/3 12/10/3 
f 13/2/4 14/11/4 15/12/4 
f 7/5/5 16/13/5 12/10/5 
f 8/3/6 15/12/6 14/11/6 
f 17/12/7 18/10/8 19/14/9 
f 20/15/10 21/16/11 22/11/12 
f 4/9/13 23/17/13 24/18/13 
f 4/9/14 25/19/14 26/20/14 
f 25/19/13 27/21/9 28/22/13 
f 19/14/9 24/18/13 28/22/13 
f 1/23/15 29/24/15 30/25/15 
f 1/23/16 20/15/10 31/26/16 
f 20/15/10 32/27/10 33/28/16 
f 2/2/16 30/25/16 33/28/16 
f 23/17/17 26/20/17 34/20/18 
f 29/24/19 35/24/20 36/25/21 
f 24/18/22 37/18/23 38/22/24 
f 39/18/25 40/22/26 38/22/24 
f 31/26/27 33/28/27 41/28/28 
f 42/17/29 37/18/30 24/18/31 
f 43/17/32 39/18/33 37/18/30 
f 44/26/34 45/26/35 41/28/28 
f 28/22/36 38/22/37 34/20/38 
f 46/20/39 34/20/38 38/22/37 
f 36/25/40 41/28/41 33/28/42 
f 47/25/43 48/28/44 41/28/41 
f 31/26/45 45/26/46 35/24/47 
f 49/24/48 35/24/47 45/26/46 
f 43/17/49 42/17/50 34/20/18 
f 49/24/51 47/25/52 36/25/21 
f 6/6/53 50/29/53 51/30/53 
f 3/3/53 2/2/53 51/30/53 
f 52/31/53 53/32/53 5/5/53 
f 52/31/53 1/1/53 54/7/53 
f 55/29/54 50/29/54 6/6/54 
f 8/3/54 3/3/54 50/29/54 
f 53/32/55 56/32/55 7/5/55 
f 54/7/55 9/7/55 56/32/55 
f 57/33/56 58/34/56 12/10/56 
f 59/19/56 15/12/56 58/34/56 
f 60/35/57 61/36/57 10/23/57 
f 14/11/57 13/2/57 61/36/57 
f 61/37/53 57/38/53 11/4/53 
f 13/2/53 59/19/53 57/38/53 
f 58/34/58 55/29/58 62/6/58 
f 58/34/58 15/12/58 8/3/58 
f 7/5/58 56/32/58 60/35/58 
f 9/7/58 14/11/58 60/35/58 
f 63/39/59 52/40/59 4/9/59 
f 63/39/60 20/41/60 1/8/60 
f 64/42/61 63/39/62 19/14/62 
f 64/42/61 21/13/63 20/41/62 
f 25/19/64 51/30/64 65/43/65 
f 2/2/64 32/27/66 65/43/65 
f 27/21/67 65/43/65 66/44/68 
f 32/27/66 22/11/69 66/44/68 
f 17/12/7 67/45/70 68/46/71 
f 17/12/72 66/44/68 69/47/73 
f 64/48/74 70/49/75 69/47/76 
f 18/50/63 68/46/77 70/49/78 
f 64/48/79 66/44/79 71/51/80 
f 22/11/69 72/52/81 71/51/82 
f 22/11/12 21/53/11 73/54/83 
f 21/53/63 64/48/61 74/55/78 
f 67/45/70 75/45/84 76/46/85 
f 77/45/86 78/46/87 76/46/85 
f 79/47/88 75/45/89 67/45/90 
f 80/47/91 77/45/92 75/45/89 
f 81/49/93 79/47/94 69/47/76 
f 81/49/93 82/49/95 80/47/96 
f 68/46/77 76/46/97 81/49/98 
f 78/46/99 82/49/100 81/49/98 
f 83/55/101 84/51/102 85/51/103 
f 83/55/101 74/55/104 71/51/80 
f 85/51/105 84/51/106 86/52/107 
f 84/51/106 71/51/82 72/52/81 
f 87/52/108 86/52/109 88/54/110 
f 72/52/111 73/54/83 88/54/110 
f 89/54/112 88/54/97 83/55/113 
f 73/54/77 74/55/78 83/55/113 
f 43/17/49 46/20/114 90/56/115 
f 40/22/116 91/57/117 90/56/118 
f 39/18/25 92/58/119 91/57/119 
f 39/18/33 43/17/32 93/59/120 
f 49/24/51 94/60/121 95/61/122 
f 44/26/123 96/62/124 94/60/125 
f 44/26/34 48/28/126 97/63/127 
f 48/28/44 47/25/43 95/61/128 
f 90/56/115 98/64/129 99/65/129 
f 91/57/117 100/66/130 98/64/131 
f 91/57/119 92/58/119 101/67/132 
f 92/58/133 93/59/120 99/65/134 
f 100/66/135 101/67/135 99/65/135 
f 95/61/122 94/60/121 102/68/136 
f 96/62/124 103/69/137 102/68/138 
f 97/63/127 104/70/139 103/69/140 
f 97/63/141 95/61/128 105/71/142 
f 102/68/143 103/69/143 104/70/143 
f 78/46/87 77/45/86 106/45/144 
f 77/45/92 80/47/91 107/47/145 
f 82/49/95 108/49/146 107/47/147 
f 78/46/99 109/46/148 108/49/149 
f 110/55/150 85/51/103 111/51/151 
f 87/52/152 112/52/153 111/51/153 
f 89/54/154 113/54/155 112/52/156 
f 89/54/112 110/55/157 114/55/158 
f 109/46/159 106/45/144 115/45/160 
f 108/49/146 116/49/161 117/47/162 
f 109/46/148 118/46/163 116/49/164 
f 115/45/165 117/47/165 116/49/165 
f 114/55/166 111/51/151 119/51/167 
f 113/54/155 120/54/168 121/52/169 
f 113/54/170 114/55/158 122/55/171 
f 121/52/172 120/54/172 122/55/172 
f 121/52/169 123/72/173 124/52/174 
f 125/73/175 126/74/176 115/45/160 
f 121/52/172 119/51/172 127/75/172 
f 115/45/165 126/74/165 128/76/165 
f 119/51/167 111/51/151 129/77/177 
f 117/47/162 128/76/178 130/78/179 
f 112/52/180 124/52/180 129/77/180 
f 106/45/181 107/47/181 130/78/181 
f 128/76/182 126/74/182 125/73/182 
f 124/52/182 123/72/182 127/75/182 
f 54/7/183 1/1/183 3/3/183 
f 25/19/184 4/4/184 6/6/184 
f 62/6/3 6/6/3 7/5/3 
f 54/7/4 3/3/4 9/7/4 
f 16/13/3 10/8/3 12/10/3 
f 59/19/4 13/2/4 15/12/4 
f 62/6/185 7/5/185 12/10/185 
f 9/7/186 8/3/186 14/11/186 
f 27/21/9 17/12/7 19/14/9 
f 32/27/10 20/15/10 22/11/12 
f 19/14/9 4/9/13 24/18/13 
f 23/17/187 4/9/187 26/20/187 
f 26/20/13 25/19/13 28/22/13 
f 27/21/9 19/14/9 28/22/13 
f 2/2/188 1/23/188 30/25/188 
f 29/24/16 1/23/16 31/26/16 
f 31/26/16 20/15/10 33/28/16 
f 32/27/10 2/2/16 33/28/16 
f 42/17/50 23/17/17 34/20/18 
f 30/25/19 29/24/19 36/25/21 
f 28/22/22 24/18/22 38/22/24 
f 37/18/23 39/18/25 38/22/24 
f 45/26/35 31/26/27 41/28/28 
f 23/17/189 42/17/29 24/18/31 
f 42/17/29 43/17/32 37/18/30 
f 48/28/126 44/26/34 41/28/28 
f 26/20/190 28/22/36 34/20/38 
f 40/22/116 46/20/39 38/22/37 
f 30/25/191 36/25/40 33/28/42 
f 36/25/40 47/25/43 41/28/41 
f 29/24/192 31/26/45 35/24/47 
f 44/26/123 49/24/48 45/26/46 
f 46/20/114 43/17/49 34/20/18 
f 35/24/20 49/24/51 36/25/21 
f 25/19/53 6/6/53 51/30/53 
f 50/29/53 3/3/53 51/30/53 
f 4/4/53 52/31/53 5/5/53 
f 53/32/53 52/31/53 54/7/53 
f 62/6/54 55/29/54 6/6/54 
f 55/29/54 8/3/54 50/29/54 
f 5/5/193 53/32/193 7/5/193 
f 53/32/193 54/7/193 56/32/193 
f 11/9/194 57/33/194 12/10/194 
f 57/33/194 59/19/194 58/34/194 
f 16/16/195 60/35/195 10/23/195 
f 60/35/195 14/11/195 61/36/195 
f 10/1/53 61/37/53 11/4/53 
f 61/37/53 13/2/53 57/38/53 
f 12/10/58 58/34/58 62/6/58 
f 55/29/58 58/34/58 8/3/58 
f 16/16/58 7/5/58 60/35/58 
f 56/32/58 9/7/58 60/35/58 
f 19/14/196 63/39/196 4/9/196 
f 52/40/59 63/39/59 1/8/59 
f 18/10/63 64/42/61 19/14/62 
f 63/39/62 64/42/61 20/41/62 
f 27/21/67 25/19/64 65/43/65 
f 51/30/64 2/2/64 65/43/65 
f 17/12/72 27/21/67 66/44/68 
f 65/43/65 32/27/66 66/44/68 
f 18/50/8 17/12/7 68/46/71 
f 67/45/90 17/12/72 69/47/73 
f 66/44/74 64/48/74 69/47/76 
f 64/48/61 18/50/63 70/49/78 
f 74/55/104 64/48/79 71/51/80 
f 66/44/68 22/11/69 71/51/82 
f 72/52/111 22/11/12 73/54/83 
f 73/54/77 21/53/63 74/55/78 
f 68/46/71 67/45/70 76/46/85 
f 75/45/84 77/45/86 76/46/85 
f 69/47/73 79/47/88 67/45/90 
f 79/47/88 80/47/91 75/45/89 
f 70/49/75 81/49/93 69/47/76 
f 79/47/94 81/49/93 80/47/96 
f 70/49/78 68/46/77 81/49/98 
f 76/46/97 78/46/99 81/49/98 
f 110/55/150 83/55/101 85/51/103 
f 84/51/102 83/55/101 71/51/80 
f 87/52/152 85/51/105 86/52/107 
f 86/52/107 84/51/106 72/52/81 
f 89/54/154 87/52/108 88/54/110 
f 86/52/109 72/52/111 88/54/110 
f 110/55/157 89/54/112 83/55/113 
f 88/54/97 73/54/77 83/55/113 
f 93/59/197 43/17/49 90/56/115 
f 46/20/39 40/22/116 90/56/118 
f 40/22/26 39/18/25 91/57/119 
f 92/58/133 39/18/33 93/59/120 
f 47/25/52 49/24/51 95/61/122 
f 49/24/48 44/26/123 94/60/125 
f 96/62/127 44/26/34 97/63/127 
f 97/63/141 48/28/44 95/61/128 
f 93/59/197 90/56/115 99/65/129 
f 90/56/118 91/57/117 98/64/131 
f 100/66/198 91/57/119 101/67/132 
f 101/67/199 92/58/133 99/65/134 
f 98/64/200 100/66/200 99/65/200 
f 105/71/136 95/61/122 102/68/136 
f 94/60/125 96/62/124 102/68/138 
f 96/62/127 97/63/127 103/69/140 
f 104/70/201 97/63/141 105/71/142 
f 105/71/202 102/68/202 104/70/202 
f 109/46/159 78/46/87 106/45/144 
f 106/45/145 77/45/92 107/47/145 
f 80/47/96 82/49/95 107/47/147 
f 82/49/100 78/46/99 108/49/149 
f 114/55/166 110/55/150 111/51/151 
f 85/51/105 87/52/152 111/51/153 
f 87/52/108 89/54/154 112/52/156 
f 113/54/170 89/54/112 114/55/158 
f 118/46/203 109/46/159 115/45/160 
f 107/47/147 108/49/146 117/47/162 
f 108/49/149 109/46/148 116/49/164 
f 118/46/165 115/45/165 116/49/165 
f 122/55/204 114/55/166 119/51/167 
f 112/52/156 113/54/155 121/52/169 
f 120/54/205 113/54/170 122/55/171 
f 119/51/172 121/52/172 122/55/172 
f 112/52/156 121/52/169 124/52/174 
f 106/45/144 125/73/175 115/45/160 
f 123/72/165 121/52/165 127/75/165 
f 117/47/165 115/45/165 128/76/165 
f 127/75/206 119/51/167 129/77/177 
f 107/47/147 117/47/162 130/78/179 
f 111/51/207 112/52/207 129/77/207 
f 125/73/208 106/45/208 130/78/208 
f 130/78/182 128/76/182 125/73/182 
f 129/77/182 124/52/182 127/75/182 
# 0 polygons - 256 triangles

